<svg width="360" height="504" viewBox="0 0 360 504" fill="none"
    xmlns="http://www.w3.org/2000/svg">
    <rect width="360" height="504" fill="#FBFAF7"/>
    <path d="M461.208 359.313C482.14 321.658 409.776 288.412 405.638 245.529C402.674 214.809 447.358 192.95 442.218 162.517C437.125 132.368 410.158 104.842 380.571 97.1235C351.14 89.4447 325.787 123.948 295.371 124.205C262.236 124.484 226.523 77.0408 201.388 98.6362C175.2 121.136 218.223 167.229 207.208 199.952C197.067 230.081 141.384 237.18 144.096 268.855C146.673 298.963 198.056 295.794 217.399 319.01C239.464 345.493 228.646 400.556 261.771 410.094C294.148 419.416 311.804 363.907 344.455 355.594C382.969 345.787 441.899 394.049 461.208 359.313Z" fill="#F4F1E7"/>
    <circle cx="80" cy="82" r="22" fill="#FFE7E4"/>
    <circle cx="80" cy="379" r="17" fill="#B7B4DE"/>
    <circle cx="127" cy="210" r="17" fill="#CDF8F4"/>
</svg>
