<svg width="360" height="504" viewBox="0 0 360 504" fill="none"
    xmlns="http://www.w3.org/2000/svg">
    <rect width="360" height="504" fill="#F1EDDF"/>
    <path d="M132.502 397.4C136.422 397.4 139.862 396.08 141.862 394.48C142.822 393.68 143.102 393.12 143.102 392.2V386.52C143.102 384.8 145.302 384.72 145.302 383.88V383.72C145.302 383.36 144.982 383.12 144.462 383.12L136.942 383.08C136.422 383.08 136.022 383.32 136.022 383.72V383.88C136.022 384.72 138.582 384.8 138.582 386.48V393.04C137.462 393.72 135.702 394.2 133.662 394.2C128.102 394.2 123.182 388.08 123.182 379.88C123.182 374.4 126.382 370.28 130.582 370.28C136.942 370.28 137.222 377.84 140.942 377.84C142.262 377.84 143.142 376.96 143.142 375.6C143.142 372.32 138.622 368.24 131.862 368.24C124.382 368.24 118.422 373.96 118.422 382.88C118.422 390.68 124.702 397.4 132.502 397.4ZM157.813 397.4C163.613 397.4 167.453 393 167.453 387.52C167.453 382 163.213 377.4 156.893 377.4C151.413 377.4 146.973 381.52 146.973 387.2C146.973 392.52 151.013 397.4 157.813 397.4ZM158.413 395.88C154.373 395.88 151.692 390.6 151.692 385.64C151.692 381.24 153.533 378.92 156.372 378.92C160.053 378.92 162.733 383.56 162.733 389.16C162.733 393.48 160.893 395.88 158.413 395.88ZM189.063 393.68V367.72C189.063 366.92 188.623 366.68 187.663 367L183.423 368.36C182.983 368.52 182.703 368.8 182.703 369.16V369.24C182.703 370.12 184.543 370.16 184.543 371.92V379.44C183.263 378.2 181.463 377.4 179.303 377.4C174.063 377.4 169.903 381.48 169.903 387.36C169.903 393.6 174.343 397.4 179.223 397.4C181.423 397.4 183.503 396.52 184.823 394.84L184.943 396.24C184.983 396.68 185.263 397 185.743 397H189.903C190.343 397 190.583 396.8 190.583 396.44V396.32C190.583 395.48 189.063 395.24 189.063 393.68ZM180.303 395.88C176.663 395.8 174.343 391.16 174.463 385.72C174.543 381.48 176.503 378.92 179.463 378.92C182.263 378.92 184.543 381.76 184.543 384.32V390.72C184.543 394.2 182.263 395.88 180.303 395.88ZM205.545 374.48C207.505 374.48 208.785 373.24 208.785 371.48C208.785 369.76 207.505 368.48 205.545 368.48C203.545 368.48 202.225 369.76 202.225 371.48C202.225 373.24 203.545 374.48 205.545 374.48ZM202.545 404.56C205.025 404.56 206.465 403.44 207.345 401.68C207.985 400.36 208.305 399.12 208.305 397V378.24C208.305 377.6 207.745 377.12 206.865 377.56L202.705 379.56C202.265 379.8 202.025 379.96 202.025 380.28V380.4C202.025 381.2 203.505 381.48 203.505 383.16V395.64C203.505 397.68 205.145 398.56 205.145 400.88C205.145 402.04 204.465 402.88 203.425 402.88C201.105 402.88 202.425 399 199.505 399C198.305 399 197.465 399.8 197.465 401C197.465 403.28 199.545 404.56 202.545 404.56ZM230.737 393.24V378.16C230.737 377.56 230.297 377.44 229.457 377.56L225.177 378.24C224.737 378.32 224.497 378.6 224.497 378.96V379.08C224.497 379.88 226.057 380.12 226.057 381.76V390.08C226.057 393.36 224.177 395.48 221.777 395.48C219.177 395.48 217.777 393.32 217.777 389.12L217.857 378.16C217.857 377.56 217.337 377.44 216.497 377.56L212.297 378.24C211.857 378.32 211.577 378.6 211.577 378.96V379.08C211.577 379.88 213.097 380.12 213.097 381.76V388.68C213.097 394.52 216.257 397.4 220.537 397.4C223.377 397.4 225.417 396.28 226.537 394.28C226.497 396.52 227.657 397.24 229.777 397.24C231.737 397.24 232.777 397.04 232.777 396.24C232.777 394.92 230.737 396.28 230.737 393.24ZM235.745 397H241.825C242.345 397 242.705 396.76 242.705 396.4V396.28C242.705 395.36 241.065 395.24 241.065 393.68V367.68C241.065 367.08 240.545 366.6 239.625 367.04L235.585 369.04C235.185 369.24 234.905 369.4 234.905 369.76V369.88C234.905 370.6 236.385 370.92 236.385 372.6V393.68C236.385 395.24 234.905 395.36 234.905 396.28V396.4C234.905 396.76 235.225 397 235.745 397Z" fill="#333333"/>
    <path d="M125.562 431H130.782V430.148H126.606V427.04H129.798V426.188H126.606V423.272H130.566V422.42H125.562V431ZM132.287 431H133.283V427.196C133.283 426.068 134.111 425.48 135.035 425.48C136.043 425.48 136.511 425.972 136.511 427.076V431H137.507V427.148C137.507 425.324 136.595 424.616 135.299 424.616C134.267 424.616 133.571 425.132 133.283 425.72V424.724H132.287V431ZM142.635 431H143.631V427.196C143.631 426.068 144.459 425.48 145.383 425.48C146.391 425.48 146.859 425.972 146.859 427.076V431H147.855V427.148C147.855 425.324 146.943 424.616 145.647 424.616C144.615 424.616 143.919 425.132 143.631 425.72V421.724H142.635V431ZM150.311 423.416C150.671 423.416 150.971 423.116 150.971 422.756C150.971 422.396 150.671 422.096 150.311 422.096C149.951 422.096 149.651 422.396 149.651 422.756C149.651 423.116 149.951 423.416 150.311 423.416ZM149.831 431H150.827V424.724H149.831V431ZM152.889 431H153.897V421.724H152.889V431ZM157.88 431.108C159.404 431.108 160.184 430.34 160.184 429.2C160.184 427.868 159.272 427.58 157.976 427.34C156.824 427.136 156.512 426.908 156.512 426.344C156.512 425.804 156.98 425.444 157.7 425.444C158.492 425.444 158.876 425.744 159.02 426.428H159.98C159.812 425.072 158.84 424.616 157.712 424.616C156.728 424.616 155.588 425.216 155.588 426.38C155.588 427.472 156.14 427.928 157.772 428.228C158.744 428.408 159.236 428.624 159.236 429.284C159.236 429.956 158.816 430.28 157.868 430.28C156.86 430.28 156.464 429.812 156.392 429.068H155.42C155.48 430.352 156.38 431.108 157.88 431.108ZM164.269 431.108C165.685 431.108 166.729 430.448 166.945 429.188H165.949C165.817 429.92 165.253 430.28 164.281 430.28C162.997 430.28 162.313 429.488 162.265 428.06H166.993V427.736C166.993 425.492 165.625 424.616 164.173 424.616C162.445 424.616 161.233 425.936 161.233 427.832V427.928C161.233 429.86 162.493 431.108 164.269 431.108ZM162.301 427.256C162.469 426.14 163.153 425.444 164.173 425.444C165.205 425.444 165.877 425.96 165.973 427.256H162.301ZM168.522 431H169.518V427.196C169.518 426.068 170.346 425.48 171.27 425.48C172.278 425.48 172.746 425.972 172.746 427.076V431H173.742V427.148C173.742 425.324 172.83 424.616 171.534 424.616C170.502 424.616 169.806 425.132 169.518 425.72V424.724H168.522V431ZM179.085 431H180.081V425.564H181.617V424.724H180.081V423.596C180.081 422.96 180.345 422.516 180.993 422.516C181.269 422.516 181.521 422.576 181.701 422.648V421.808C181.449 421.724 181.281 421.688 180.957 421.688C179.709 421.688 179.085 422.432 179.085 423.704V424.724H178.185V425.564H179.085V431ZM183.018 431H184.014V427.556C184.014 426.008 184.818 425.612 186.078 425.552V424.616C184.95 424.652 184.41 425.144 184.014 425.852V424.724H183.018V431ZM189.043 431.108C189.967 431.108 190.531 430.796 190.999 430.208V431H191.995V426.86C191.995 425.108 190.903 424.616 189.703 424.616C188.491 424.616 187.351 425.144 187.219 426.572H188.215C188.311 425.804 188.791 425.444 189.655 425.444C190.615 425.444 190.999 425.864 190.999 426.86V427.316H190.099C188.491 427.316 186.955 427.808 186.955 429.26C186.955 430.544 187.879 431.108 189.043 431.108ZM189.139 430.316C188.263 430.316 187.951 429.908 187.951 429.26C187.951 428.336 188.875 428.024 190.135 428.024H190.999V428.804C190.999 429.776 190.195 430.316 189.139 430.316ZM199.395 431H200.643L203.607 422.42H202.623L200.067 429.992L197.511 422.42H196.479L199.395 431ZM206.129 431.108C207.053 431.108 207.617 430.796 208.085 430.208V431H209.081V426.86C209.081 425.108 207.989 424.616 206.789 424.616C205.577 424.616 204.437 425.144 204.305 426.572H205.301C205.397 425.804 205.877 425.444 206.741 425.444C207.701 425.444 208.085 425.864 208.085 426.86V427.316H207.185C205.577 427.316 204.041 427.808 204.041 429.26C204.041 430.544 204.965 431.108 206.129 431.108ZM206.225 430.316C205.349 430.316 205.037 429.908 205.037 429.26C205.037 428.336 205.961 428.024 207.221 428.024H208.085V428.804C208.085 429.776 207.281 430.316 206.225 430.316ZM211.037 431H212.033V427.556C212.033 426.008 212.837 425.612 214.097 425.552V424.616C212.969 424.652 212.429 425.144 212.033 425.852V424.724H211.037V431ZM216.053 423.416C216.413 423.416 216.713 423.116 216.713 422.756C216.713 422.396 216.413 422.096 216.053 422.096C215.693 422.096 215.393 422.396 215.393 422.756C215.393 423.116 215.693 423.416 216.053 423.416ZM215.573 431H216.569V424.724H215.573V431ZM220.18 431.108C221.104 431.108 221.668 430.796 222.136 430.208V431H223.132V426.86C223.132 425.108 222.04 424.616 220.84 424.616C219.628 424.616 218.488 425.144 218.356 426.572H219.352C219.448 425.804 219.928 425.444 220.792 425.444C221.752 425.444 222.136 425.864 222.136 426.86V427.316H221.236C219.628 427.316 218.092 427.808 218.092 429.26C218.092 430.544 219.016 431.108 220.18 431.108ZM220.276 430.316C219.4 430.316 219.088 429.908 219.088 429.26C219.088 428.336 220.012 428.024 221.272 428.024H222.136V428.804C222.136 429.776 221.332 430.316 220.276 430.316ZM225.088 431H226.084V427.196C226.084 426.068 226.912 425.48 227.836 425.48C228.844 425.48 229.312 425.972 229.312 427.076V431H230.308V427.148C230.308 425.324 229.396 424.616 228.1 424.616C227.068 424.616 226.372 425.132 226.084 425.72V424.724H225.088V431ZM234.168 431.084C234.576 431.084 234.816 431.024 235.02 430.952V430.112C234.804 430.196 234.564 430.244 234.252 430.244C233.748 430.244 233.472 429.944 233.472 429.332V425.564H234.936V424.724H233.472V423.296H232.476V424.724H231.576V425.564H232.476V429.428C232.476 430.412 233.028 431.084 234.168 431.084Z" fill="#333333"/>
    <mask id="mask0" mask-type="alpha" maskUnits="userSpaceOnUse" x="100" y="98" width="160" height="216">
        <path fill-rule="evenodd" clip-rule="evenodd" d="M185.564 306.27C205.664 303.323 228.573 302.166 241.686 286.65C254.248 271.786 246.532 249.46 249.791 230.273C252.398 214.916 260.808 201.046 258.846 185.594C256.58 167.749 249.527 151.053 237.979 137.262C223.623 120.117 207.868 96.4731 185.564 98.0777C163.016 99.6999 154.301 128.404 138.357 144.43C125.699 157.154 107.649 165.218 101.864 182.208C96.0426 199.299 105.531 216.8 107.603 234.735C110.381 258.783 98.2197 288.708 116.056 305.074C133.558 321.134 162.062 309.717 185.564 306.27Z" fill="white"/>
    </mask>
    <g mask="url(#mask0)">
        <path fill-rule="evenodd" clip-rule="evenodd" d="M730.065 840.887H-1120.81V-485.584H730.065V840.887Z" fill="#03DAC6"/>
        <path fill-rule="evenodd" clip-rule="evenodd" d="M240.794 109.905C239.247 110.719 144.211 117.859 144.211 117.859C144.211 117.859 113.83 96.7764 97.9903 71.9644C82.1503 47.1528 54.5932 33.0062 42.607 29.895L36.4974 17.1856L40.8045 0.596454L70.8087 -10.9938L71.8621 11.7419L58.1178 22.6839L124.44 49.4556L193.526 57.4094L244.093 94.2923L240.794 109.905Z" fill="#EDE8D7"/>
        <path fill-rule="evenodd" clip-rule="evenodd" d="M544.324 376.566C532.361 366.703 500.546 289.663 436.914 285.573C373.283 281.482 406.7 248.891 378.174 257.006C349.648 265.12 322.378 255.714 322.378 255.714L199.065 187.409L223.829 170.809L544.324 302.581L564.059 370.367L544.324 376.566Z" fill="#423D89"/>
        <path fill-rule="evenodd" clip-rule="evenodd" d="M233.377 286.757L243.016 332.693L243.65 341.789L292.259 345.664L293.29 332.896L233.377 286.757Z" fill="#EDE8D7"/>
        <path fill-rule="evenodd" clip-rule="evenodd" d="M262.383 253.826L235.795 259.893C235.795 259.893 263.747 287.715 264.428 286.757C265.11 285.799 280.337 276.936 280.337 276.936L262.383 253.826Z" fill="#EDE8D7"/>
        <path fill-rule="evenodd" clip-rule="evenodd" d="M201.374 284.394C201.743 285.303 221.896 329.932 221.896 329.932L187.617 322.388L123.909 309.846L94.4426 278.073L100.579 249.666L148.303 243.985L146.938 277.164L153.321 289.665C153.321 289.665 159.554 293.275 162.682 290.539C165.359 288.198 170.333 283.09 173.632 280.493C180.563 275.04 201.374 284.394 201.374 284.394Z" fill="#EDE8D7"/>
        <path fill-rule="evenodd" clip-rule="evenodd" d="M304.376 166.599L203.819 187.409L154.57 134.923C154.57 134.923 157.113 116.797 170.754 99.8479C184.397 82.8999 209.191 76.7718 231.245 101.917C253.299 127.062 278.038 147.177 278.038 147.177L304.376 166.599Z" fill="#FFC4BC"/>
        <path fill-rule="evenodd" clip-rule="evenodd" d="M482.741 238.479C483.413 241.834 482.451 246.822 477.945 248.857C470.859 252.058 465.482 253.928 459.344 258.303C445.684 268.039 441.378 276.725 431.006 299.942C420.633 323.16 421.699 326.185 394.565 338.492C380.206 345.003 353.997 356.308 322.894 360.357C298.528 363.529 271.333 360.433 254.995 357.341C241.733 354.831 250.513 358.233 239.433 356.461C189.18 348.427 116.748 316.141 116.748 316.141C116.748 316.141 125.17 302.385 152.402 304.911C179.635 307.438 203.79 329.936 243.79 337.356C283.791 344.777 327.306 337.196 327.306 337.196C327.306 337.196 404.938 313.797 413.428 293.491C421.917 273.187 434.831 251.076 453.079 239.391C471.328 227.707 481.619 232.864 482.741 238.479Z" fill="#FFC4BC"/>
        <path fill-rule="evenodd" clip-rule="evenodd" d="M90.1614 29.967C78.3898 24.4132 71.9391 19.2932 67.4036 15.2914C58.709 7.61786 54.4685 7.33762 50.7247 10.7143C47.903 13.2595 47.3804 20.0729 55.9649 27.5975C68.2756 38.3878 89.0183 51.6965 124.217 54.6098C164.364 57.9318 210.326 67.0685 232.476 103.893C244.703 124.22 252.479 141.528 273.613 154.918C290.765 165.785 310.793 183.025 379.499 175.881C438.125 169.786 485.288 164.196 525.124 152.96C584.668 136.164 618.608 114.19 627.451 75.4372C636.867 34.1705 628.112 -3.2344 580.449 -34.0691C561.997 -46.0062 534.701 -54.1005 504.859 -65.3079C504.859 -65.3079 497.46 -53.7472 484.512 -49.5854C484.512 -49.5854 571.911 -28.3137 605.206 35.5013C612.626 49.7219 606.834 60.391 603.014 71.9931C589.694 112.458 526.295 139.009 480.702 145.337C421.539 153.549 338.091 172.844 293.687 147.062C274.452 135.894 256.161 110.021 250.251 98.8906C238.849 77.4183 230.37 59.6475 191.244 49.0985C146.878 37.1355 105.622 37.2622 90.1614 29.967Z" fill="#E61A6B"/>
        <path fill-rule="evenodd" clip-rule="evenodd" d="M282.469 340.613C282.469 340.613 246.959 320.869 233.376 286.757C233.376 286.757 300.338 304.76 324.659 297.811C348.979 290.863 379.997 312.944 360.982 333.819C360.982 333.819 331.292 344.557 282.469 340.613Z" fill="#E61A6B"/>
        <path fill-rule="evenodd" clip-rule="evenodd" d="M46.1451 319.843C44.8235 317.465 36.2381 317.127 33.0436 323.493C31.008 327.552 32.7597 337.683 34.8045 340.899C39.3003 347.967 57.4006 358.783 68.3232 357.182C92.012 353.707 83.0298 327.817 112.404 323.712C141.779 319.606 139.883 291.811 121.564 286.757C103.244 281.704 111.62 261.502 129.623 254.553C147.627 247.605 157.217 237.598 152.479 218.963C148.926 204.986 143.23 198.341 134.124 203.909C131.089 205.764 119.669 219.874 117.458 222.007C108.613 230.535 106.299 220.119 120.513 207.579C134.726 195.04 129.873 182.677 121.028 174.006C112.185 165.333 98.0264 181.77 88.2349 179.558C78.4435 177.348 90.9919 155.03 58.7093 155.36L31.8783 183.463C31.8783 183.463 53.0233 188.527 52.3916 209.373C51.7599 230.219 58.393 236.851 72.2908 244.432C80.7288 249.034 83.6967 258.086 79.2388 264.647C76.3555 268.892 67.9245 270.592 64.079 274.437C54.2875 284.23 83.0298 293.336 82.0819 314.367C81.1348 335.397 63.5167 351.114 46.1451 319.843Z" fill="#E61A6B"/>
        <path fill-rule="evenodd" clip-rule="evenodd" d="M199.065 207.58C199.065 207.58 217.274 208.683 227.481 211.166C237.689 213.649 249.493 235.799 255.897 257.791L245.69 261.93C245.69 261.93 237.065 259.602 233.377 250.222C229.689 240.842 221.412 242.341 223.895 255.032C226.378 267.723 227.481 269.378 227.481 269.378L194.651 255.86L192.444 233.513C192.444 233.513 181.96 236.271 172.304 233.237V220.271C172.304 220.271 194.375 224.96 199.065 207.58Z" fill="#E61A6B"/>
        <path fill-rule="evenodd" clip-rule="evenodd" d="M166.933 339.977C166.933 339.977 160.151 339.032 154.764 340.686C141.585 344.732 141.722 357.945 141.722 386.264C141.722 408.8 141.536 420.162 141.536 420.162L110.883 423.605V470.033C110.883 491.384 86.1022 506.536 58.7088 483.996C46.1502 473.662 40.5695 452.29 34.8049 432.695C29.0394 413.099 6.1649 361.35 -41.4078 355.052C-88.9805 348.751 -91.8577 333.583 -91.8577 333.583C-91.8577 333.583 -78.0449 322.984 -78.0449 307.073C-78.0449 307.073 -51.9132 317.319 -51.9132 287.963C-51.9132 287.963 -21.3708 351.125 32.0055 356.461C32.0055 356.461 29.7155 336.602 16.6676 325.926C3.62071 315.251 4.45123 305.527 8.61586 287.017C10.3907 279.13 6.88175 272.512 3.75389 269.499C-0.473625 265.425 -2.79594 260.234 -2.59431 255.303C-2.26137 247.14 4.42062 241.507 10.398 233.519C17.6581 223.816 15.6391 212.978 7.27288 205.542L36.4966 178.626C36.4966 178.626 50.8067 183.491 53.9485 203.747C57.2585 225.09 57.3317 232.531 71.6327 240.81C79.6828 245.469 85.5186 253.504 85.3808 257.717C85.1524 264.737 78.8948 270.43 67.5892 274.323C49.5009 280.549 82.8042 285.375 83.8983 312.871C84.9924 340.369 66.5849 343.846 58.6931 342.228C51.2915 340.712 47.4597 337.674 44.5538 331.354C42.5774 327.053 41.1329 323.07 38.8744 324.039C36.4836 325.065 36.8553 330.693 39.1268 336.126C41.8606 342.667 47.7843 349.14 60.7434 349.788C84.4661 350.975 86.0513 323.712 112.405 323.712V344.007C112.405 344.007 138.737 325.151 166.933 339.977Z" fill="#423D89"/>
        <path fill-rule="evenodd" clip-rule="evenodd" d="M296.403 275.049C288.629 272.872 255.791 288.578 255.898 272.74C255.898 272.74 263.334 274.841 255.898 257.791C251.991 248.829 248.359 241.317 248.359 241.317C248.359 241.317 268.957 234.412 287.042 246.751C305.127 259.091 321.742 260.02 337.486 261.083C353.231 262.148 361.083 276.112 355.977 294.836C350.871 313.559 325.791 310.095 314.488 292.07C306.616 279.517 302.113 276.648 296.403 275.049Z" fill="#03DAC6"/>
        <path fill-rule="evenodd" clip-rule="evenodd" d="M199.065 207.58C196.489 204.64 189.589 200.71 192.004 194.627C194.688 187.868 207.6 185.375 211.613 185.875C218.136 186.689 231.101 195.614 228.577 206.232C227.868 209.22 226.292 207.5 221.896 210.05C221.896 210.05 210.174 220.257 199.065 207.58Z" fill="#03DAC6"/>
        <path fill-rule="evenodd" clip-rule="evenodd" d="M85.2412 183.472C85.2412 183.472 95.5422 153.497 125.811 161.16C128.191 165.301 133.419 170.809 140.295 169.087C151.045 178.625 148.537 197.777 148.537 197.777C148.537 197.777 155.548 213.048 166.381 217.827L161.396 232.969C161.396 232.969 151.733 227.673 150.107 223.258C150.107 223.258 147.406 205.871 131.848 212.702C125.954 215.287 121.607 219.938 117.664 223.26C112.727 227.415 108.067 228.037 104.697 224.406C102.289 221.813 102.033 216.677 106.67 212.258C109.849 209.23 113.962 205.351 117.786 199.746C127.19 185.965 114.739 175.417 106.161 177.614C97.5853 179.812 93.3152 186.714 85.2412 183.472Z" fill="#423D89"/>
        <path fill-rule="evenodd" clip-rule="evenodd" d="M159.553 293.275C159.553 293.275 143.249 295.335 132.682 286.757C122.115 278.179 137.512 267.612 147.476 277.575C152.343 282.442 160.439 285.439 162.229 288.112C164.103 290.912 159.553 293.275 159.553 293.275Z" fill="#423D89"/>
        <path fill-rule="evenodd" clip-rule="evenodd" d="M411.996 29.2087C441.993 47.3479 448.795 84.8883 432.51 116.072C425.325 129.829 411.086 146.164 389.612 154.399C363.193 164.53 327.251 163.881 297.393 149.058C243.269 122.186 259.203 82.16 204.862 53.5102C181.674 41.2845 176.356 26.1419 176.356 26.1419C175.946 26.1539 208.262 23.5578 227.064 7.23969C238.391 -2.58967 245.223 -18.8431 246.877 -36.9092C246.877 -36.9092 279.65 -25.6288 296.24 5.21056C307.112 25.4214 322.194 29.2651 336.241 29.2845C336.863 29.2855 339.245 28.7833 339.872 28.7574C361.141 18.8781 395.661 19.3303 411.996 29.2087Z" fill="#333333"/>
        <path fill-rule="evenodd" clip-rule="evenodd" d="M413.428 293.491C413.428 293.491 379.902 291.568 378.174 257.005C378.174 257.005 349.487 260.807 329.095 249.747C308.704 238.687 290.385 205.507 262.39 204.47C248.093 203.941 237.614 197.317 229.473 193.045C221.674 188.95 215.91 187.188 215.91 187.188C215.91 187.188 219.652 189.198 221.896 193.045C226.204 200.43 224.376 210.93 214.857 213.516C214.857 213.516 235.709 208.003 248.359 241.317C248.359 241.317 271.877 235.461 301.329 256.286C322.875 271.521 348.957 254.975 356.035 283.515C358.709 294.296 352.284 301.975 352.284 301.975C352.284 301.975 371.714 317.158 360.982 333.819C375.929 329.932 402.378 316.21 413.428 293.491Z" fill="#333333"/>
        <path fill-rule="evenodd" clip-rule="evenodd" d="M319.987 298.778C307.467 284.394 304.292 262.101 269.801 269.816C261.458 271.681 253.287 278.333 245.69 261.929C241.534 252.957 240.099 250.79 237.687 246.599C235.685 243.121 231.461 237.6 226.445 238.479C222.756 239.125 221.327 242.891 221.385 248.233C221.5 258.903 227.552 275.857 233.377 286.757C233.377 286.757 254.791 322.282 319.987 298.778Z" fill="#333333"/>
        <path fill-rule="evenodd" clip-rule="evenodd" d="M194.651 255.86L192.444 233.513C192.444 233.513 172.63 238.842 150.107 223.258C150.107 223.258 151.141 229.27 148.87 236.184C146.602 243.092 140.621 250.001 129.623 254.554C111.955 269.378 130.43 284.394 130.43 284.394C130.43 284.394 127.868 278.63 130.932 277.094C133.995 275.557 142.684 278.249 146.934 277.06C146.934 277.06 154.946 265.439 162.444 256.319C169.944 247.198 194.651 255.86 194.651 255.86Z" fill="#333333"/>
        <path fill-rule="evenodd" clip-rule="evenodd" d="M148.537 197.777C148.537 197.777 152.108 214.363 169.944 220.038C187.78 225.713 194.107 213.68 203.63 211.582C192.904 199.536 204.64 186.776 211.613 185.875C211.613 185.875 183.929 171.597 174.808 140.993C165.688 110.388 170.754 99.8479 170.754 99.8479L97.9903 71.9644C97.9903 71.9644 101.546 76.5397 105.948 88.8745C110.569 101.828 111.22 124.94 97.9903 138.539C82.67 154.285 58.709 155.361 58.709 155.361C58.709 155.361 73.97 155.016 77.2653 166.513C80.5605 178.01 81.0201 181.223 85.2411 183.472C85.2411 183.472 96.935 155.486 125.81 161.161C125.81 161.161 124.295 153.608 127.45 148.105C130.44 142.89 137.925 139.601 144.237 143.348C157.208 151.051 148.246 167.595 140.294 169.087C144.006 175.127 143.863 175.429 148.537 197.777Z" fill="#333333"/>
    </g>
</svg>
