<svg fill="none" height="504" viewBox="0 0 360 504" width="360" xmlns="http://www.w3.org/2000/svg"><path d="m0 0h360v504h-360z" fill="#090055"/><path d="m62.84 305.8c-8 0-15-1.8-21-5.4s-10.68-8.68-14.04-15.24c-3.28-6.64-4.92-14.32-4.92-23.04 0-8.8 1.72-16.52 5.16-23.16s8.32-11.76 14.64-15.36 13.68-5.4 22.08-5.4c7.04 0 13.28 1.28 18.72 3.84 5.52 2.48 9.96 6 13.32 10.56 3.36 4.48 5.44 9.72 6.24 15.72h-16.8c-.56-3.28-1.8-6.08-3.72-8.4-1.84-2.4-4.24-4.24-7.2-5.52s-6.32-1.92-10.08-1.92c-5.28 0-9.84 1.2-13.68 3.6-3.84 2.32-6.8 5.72-8.88 10.2-2.08 4.4-3.12 9.64-3.12 15.72 0 6 1 11.2 3 15.6s4.88 7.84 8.64 10.32c3.76 2.4 8.24 3.6 13.44 3.6 4.24 0 7.92-.8 11.04-2.4 3.2-1.6 5.76-3.92 7.68-6.96 1.92-3.12 3.08-6.8 3.48-11.04h-22.44v-12.84h39.6v45.72h-13.8v-21.12l2.88-3.24c-1.28 8.48-4.44 14.96-9.48 19.44s-11.96 6.72-20.76 6.72zm89.545 0c-8.32 0-15.64-1.8-21.96-5.4s-11.2-8.68-14.64-15.24c-3.44-6.64-5.16-14.36-5.16-23.16s1.72-16.48 5.16-23.04c3.44-6.64 8.32-11.76 14.64-15.36s13.64-5.4 21.96-5.4c8.4 0 15.76 1.8 22.08 5.4s11.16 8.72 14.52 15.36c3.44 6.64 5.16 14.32 5.16 23.04s-1.72 16.4-5.16 23.04c-3.36 6.64-8.2 11.76-14.52 15.36s-13.68 5.4-22.08 5.4zm0-14.28c4.96 0 9.32-1.2 13.08-3.6 3.84-2.48 6.8-5.92 8.88-10.32 2.08-4.48 3.12-9.68 3.12-15.6s-1.04-11.08-3.12-15.48c-2.08-4.48-5.04-7.92-8.88-10.32-3.76-2.48-8.12-3.72-13.08-3.72s-9.36 1.24-13.2 3.72c-3.76 2.4-6.68 5.84-8.76 10.32-2.08 4.4-3.12 9.56-3.12 15.48s1.04 11.12 3.12 15.6c2.08 4.4 5 7.84 8.76 10.32 3.76 2.4 8.16 3.6 13.2 3.6zm49.217-71.52h31.2c8.88 0 16.48 1.6 22.8 4.8 6.4 3.2 11.28 7.96 14.64 14.28s5.04 13.92 5.04 22.8-1.68 16.48-5.04 22.8c-3.28 6.32-8.08 11.16-14.4 14.52-6.32 3.28-13.88 4.88-22.68 4.8h-31.56zm31.56 69.84c5.36 0 9.92-1.08 13.68-3.24 3.84-2.24 6.76-5.44 8.76-9.6s3-9.2 3-15.12c0-8.8-2.28-15.6-6.84-20.4-4.48-4.88-10.8-7.32-18.96-7.32h-15v55.68zm-169.722 38.16h16.08v57.12c0 9.12-2.6 16.2-7.8 21.24-5.12 4.96-12.12 7.44-21 7.44-6 0-11.2-1.16-15.6-3.48-4.32-2.32-7.64-5.68-9.96-10.08s-3.48-9.6-3.48-15.6v-6.24h16.2v7.08c0 4.64 1.08 8.16 3.24 10.56 2.16 2.32 5.4 3.48 9.72 3.48 4 0 7.08-1.08 9.24-3.24 2.24-2.24 3.36-5.68 3.36-10.32zm59.182 85.8c-7.36 0-13.68-1.44-18.96-4.32-5.2804-2.88-9.3204-7-12.1204-12.36-2.72-5.44-4.08-11.88-4.08-19.32v-49.8h16.2004v50.04c0 7.2 1.56 12.6 4.68 16.2 3.2 3.52 7.96 5.28 14.28 5.28 6.24 0 10.96-1.72 14.16-5.16 3.2-3.52 4.8-8.96 4.8-16.32v-50.04h16.08v49.8c0 11.52-3.12 20.4-9.36 26.64-6.16 6.24-14.72 9.36-25.68 9.36zm44.176-85.8h16.2v64.92c0 1.52.4 2.72 1.2 3.6.88.8 2.12 1.2 3.72 1.2h37.2v14.28h-58.32zm70.405 41.28c-.8-9.2-1.2-18.12-1.2-26.76v-14.52h15.84v14.52c0 9.2-.48 18.12-1.44 26.76l-1.8 17.52h-9.6zm6.72 44.52c-2.72 0-5-.84-6.84-2.52-1.76-1.68-2.64-3.76-2.64-6.24 0-1.68.4-3.2 1.2-4.56.88-1.36 2.04-2.44 3.48-3.24s3.04-1.2 4.8-1.2c2.72 0 4.96.88 6.72 2.64 1.76 1.68 2.64 3.8 2.64 6.36 0 1.68-.4 3.2-1.2 4.56-.8 1.28-1.92 2.28-3.36 3-1.36.8-2.96 1.2-4.8 1.2z" fill="#fe6d6d"/><path clip-rule="evenodd" d="m35 73c8.2843 0 15-6.7157 15-15s-6.7157-15-15-15-15 6.7157-15 15 6.7157 15 15 15zm-7.9416-22.2992 5.655 15.2728h.0008c.3384.9144 1.2141 1.5224 2.1929 1.5224.9771 0 1.8511-.6047 2.1912-1.5166l5.7004-15.2786h-3.3698l-4.5127 12.7325-4.5359-12.7325z" fill="#fffbf0" fill-rule="evenodd"/><path d="m282.56 127.8c-.8 6.88-1.88 11.88-3.24 15-1.44 3.04-3.68 5.28-6.72 6.72-3.12 1.36-8.12 2.44-15 3.24v5.04c6.88.8 11.88 1.92 15 3.36 3.04 1.36 5.28 3.6 6.72 6.72 1.36 3.04 2.44 8 3.24 14.88h5.04c.8-6.88 1.92-11.84 3.36-14.88 1.36-3.12 3.6-5.36 6.72-6.72 3.04-1.44 8-2.56 14.88-3.36v-5.04c-6.88-.8-11.84-1.88-14.88-3.24-3.12-1.44-5.36-3.68-6.72-6.72-1.44-3.12-2.56-8.12-3.36-15zm36.48-11.4c-.32 2.72-.72 4.72-1.2 6-.56 1.2-1.44 2.08-2.64 2.64-1.2.48-3.2.88-6 1.2v3.12c2.72.32 4.72.76 6 1.32 1.2.48 2.08 1.36 2.64 2.64.48 1.2.88 3.16 1.2 5.88h3.12c.32-2.72.76-4.68 1.32-5.88.56-1.28 1.44-2.16 2.64-2.64 1.2-.56 3.16-1 5.88-1.32v-3.12c-2.72-.32-4.68-.72-5.88-1.2-1.2-.56-2.08-1.44-2.64-2.64-.56-1.28-1-3.28-1.32-6zm-10.68 58.8c-.32 2.72-.72 4.72-1.2 6-.56 1.2-1.44 2.08-2.64 2.64-1.2.48-3.2.88-6 1.2v3.12c2.72.32 4.72.76 6 1.32 1.2.48 2.08 1.36 2.64 2.64.48 1.2.88 3.16 1.2 5.88h3.12c.32-2.72.76-4.68 1.32-5.88.56-1.28 1.44-2.16 2.64-2.64 1.2-.56 3.16-1 5.88-1.32v-3.12c-2.72-.32-4.68-.72-5.88-1.2-1.2-.56-2.08-1.44-2.64-2.64-.56-1.28-1-3.28-1.32-6z" fill="#ffd862"/><g fill="#fffbf0"><path d="m32.168 476.776h-7.776v7.224h-3.24v-16.8h3.24v6.72h7.776v-6.72h3.216v16.8h-3.216zm5.5309-4.92h3.072v12.144h-3.072zm1.536-1.776c-.544 0-.992-.168-1.344-.504s-.528-.752-.528-1.248c0-.32.08-.616.24-.888s.384-.488.672-.648.608-.24.96-.24c.528 0 .968.176 1.32.528.368.336.552.752.552 1.248s-.176.912-.528 1.248-.8.504-1.344.504zm6.9752 13.92c-1.024 0-1.808-.264-2.352-.792-.528-.528-.792-1.288-.792-2.28v-13.728h3.072v14.208h1.296v2.592zm9.3165-7.08c1.232.224 2.16.64 2.784 1.248.64.592.96 1.376.96 2.352 0 1.184-.472 2.12-1.416 2.808-.928.688-2.2 1.032-3.816 1.032-1.168 0-2.176-.176-3.024-.528-.848-.368-1.504-.88-1.968-1.536-.464-.672-.704-1.464-.72-2.376h2.856c.08.656.352 1.168.816 1.536.48.352 1.136.528 1.968.528.704 0 1.248-.12 1.632-.36.4-.256.6-.624.6-1.104 0-.368-.136-.656-.408-.864-.272-.224-.712-.392-1.32-.504l-1.872-.312c-1.312-.24-2.304-.656-2.976-1.248s-1.008-1.36-1.008-2.304c0-.768.192-1.432.576-1.992.4-.576.968-1.016 1.704-1.32.752-.32 1.64-.48 2.664-.48 1.568 0 2.824.368 3.768 1.104.96.736 1.48 1.76 1.56 3.072h-2.928c-.064-.576-.304-1.032-.72-1.368s-.984-.504-1.704-.504c-.64 0-1.128.128-1.464.384-.336.24-.504.568-.504.984 0 .352.144.632.432.84.304.208.8.384 1.488.528zm10.9691 7.464c-1.248 0-2.344-.264-3.288-.792-.944-.544-1.672-1.296-2.184-2.256-.512-.976-.768-2.112-.768-3.408 0-1.28.256-2.408.768-3.384s1.232-1.728 2.16-2.256c.944-.544 2.048-.816 3.312-.816 1.36 0 2.512.312 3.456.936s1.616 1.488 2.016 2.592c.416 1.088.52 2.336.312 3.744h-9.84l.888-.912c-.08 1.28.16 2.28.72 3 .576.72 1.392 1.08 2.448 1.08.72 0 1.312-.152 1.776-.456.464-.32.76-.696.888-1.128h3.048c-.16.784-.496 1.488-1.008 2.112-.512.608-1.168 1.088-1.968 1.44-.8.336-1.712.504-2.736.504zm-3.984-7.728h7.656l-.96.864c.144-.704.12-1.328-.072-1.872-.176-.56-.504-.992-.984-1.296-.464-.32-1.04-.48-1.728-.48-.64 0-1.192.144-1.656.432s-.824.712-1.08 1.272c-.24.56-.36 1.24-.36 2.04zm19.7233.216c0-.928-.184-1.616-.552-2.064s-.928-.672-1.68-.672c-.896 0-1.608.32-2.136.96-.512.624-.768 1.576-.768 2.856v6.048h-3.072v-12.144h2.784v2.88l-.312-.384c.336-.944.864-1.656 1.584-2.136.72-.496 1.608-.744 2.664-.744.944 0 1.76.192 2.448.576s1.208.944 1.56 1.68c.368.72.552 1.576.552 2.568v7.704h-3.072zm14.8256 7.512c-1.312 0-2.352-.352-3.12-1.056s-1.152-1.616-1.152-2.736c0-1.072.36-1.928 1.08-2.568.736-.656 1.792-1.04 3.168-1.152l2.832-.192c.3044-.032.5284-.12.6724-.264.16-.16.24-.4.24-.72 0-.592-.208-1.032-.624-1.32-.4004-.304-.9524-.456-1.6564-.456-.752 0-1.336.168-1.752.504-.4.32-.648.768-.744 1.344h-2.952c.144-1.376.68-2.432 1.608-3.168.928-.752 2.208-1.128 3.84-1.128 1.7124 0 3.0244.408 3.9364 1.224s1.368 2.032 1.368 3.648v5.064h.984v2.592h-1.224c-.768 0-1.352-.208-1.752-.624-.384-.432-.576-1.056-.576-1.872v-1.176l.408.168c-.208 1.296-.728 2.272-1.56 2.928-.8164.64-1.8244.96-3.0244.96zm.624-2.448c.592 0 1.12-.12 1.584-.36.48-.256.8564-.6 1.1284-1.032.272-.448.408-.944.408-1.488v-.48l-3.1204.24c-.624.048-1.088.216-1.392.504-.288.272-.432.64-.432 1.104 0 .48.16.856.48 1.128.32.256.768.384 1.344.384zm11.6894 2.064c-1.024 0-1.808-.264-2.352-.792-.528-.528-.792-1.288-.792-2.28v-13.728h3.072v14.208h1.296v2.592zm5.719 0c-1.024 0-1.808-.264-2.352-.792-.528-.528-.792-1.288-.792-2.28v-13.728h3.072v14.208h1.296v2.592zm8.262.384c-1.248 0-2.344-.264-3.288-.792-.944-.544-1.672-1.296-2.184-2.256-.512-.976-.768-2.112-.768-3.408 0-1.28.256-2.408.768-3.384s1.232-1.728 2.16-2.256c.944-.544 2.048-.816 3.312-.816 1.36 0 2.512.312 3.456.936s1.616 1.488 2.016 2.592c.416 1.088.52 2.336.312 3.744h-9.84l.888-.912c-.08 1.28.16 2.28.72 3 .576.72 1.392 1.08 2.448 1.08.72 0 1.312-.152 1.776-.456.464-.32.76-.696.888-1.128h3.048c-.16.784-.496 1.488-1.008 2.112-.512.608-1.168 1.088-1.968 1.44-.8.336-1.712.504-2.736.504zm-3.984-7.728h7.656l-.96.864c.144-.704.12-1.328-.072-1.872-.176-.56-.504-.992-.984-1.296-.464-.32-1.04-.48-1.728-.48-.64 0-1.192.144-1.656.432s-.824.712-1.08 1.272c-.24.56-.36 1.24-.36 2.04zm23.393 7.728c-1.28 0-2.4-.264-3.36-.792-.96-.544-1.704-1.296-2.232-2.256-.512-.976-.768-2.112-.768-3.408 0-1.28.256-2.408.768-3.384.528-.976 1.272-1.728 2.232-2.256.96-.544 2.072-.816 3.336-.816 1.28 0 2.392.272 3.336.816.96.528 1.696 1.28 2.208 2.256.528.96.792 2.088.792 3.384 0 1.28-.264 2.408-.792 3.384-.512.976-1.248 1.736-2.208 2.28-.944.528-2.048.792-3.312.792zm0-2.616c.624 0 1.176-.152 1.656-.456.496-.32.872-.768 1.128-1.344.272-.592.408-1.272.408-2.04 0-1.168-.296-2.104-.888-2.808-.576-.704-1.344-1.056-2.304-1.056-.656 0-1.224.16-1.704.48s-.856.776-1.128 1.368c-.256.576-.384 1.248-.384 2.016 0 1.168.288 2.104.864 2.808.592.688 1.376 1.032 2.352 1.032zm14.552-4.848c1.232.224 2.16.64 2.784 1.248.64.592.96 1.376.96 2.352 0 1.184-.472 2.12-1.416 2.808-.928.688-2.2 1.032-3.816 1.032-1.168 0-2.176-.176-3.024-.528-.848-.368-1.504-.88-1.968-1.536-.464-.672-.704-1.464-.72-2.376h2.856c.08.656.352 1.168.816 1.536.48.352 1.136.528 1.968.528.704 0 1.248-.12 1.632-.36.4-.256.6-.624.6-1.104 0-.368-.136-.656-.408-.864-.272-.224-.712-.392-1.32-.504l-1.872-.312c-1.312-.24-2.304-.656-2.976-1.248s-1.008-1.36-1.008-2.304c0-.768.192-1.432.576-1.992.4-.576.968-1.016 1.704-1.32.752-.32 1.64-.48 2.664-.48 1.568 0 2.824.368 3.768 1.104.96.736 1.48 1.76 1.56 3.072h-2.928c-.064-.576-.304-1.032-.72-1.368s-.984-.504-1.704-.504c-.64 0-1.128.128-1.464.384-.336.24-.504.568-.504.984 0 .352.144.632.432.84.304.208.8.384 1.488.528zm11.929 0c1.232.224 2.16.64 2.784 1.248.64.592.96 1.376.96 2.352 0 1.184-.472 2.12-1.416 2.808-.928.688-2.2 1.032-3.816 1.032-1.168 0-2.176-.176-3.024-.528-.848-.368-1.504-.88-1.968-1.536-.464-.672-.704-1.464-.72-2.376h2.856c.08.656.352 1.168.816 1.536.48.352 1.136.528 1.968.528.704 0 1.248-.12 1.632-.36.4-.256.6-.624.6-1.104 0-.368-.136-.656-.408-.864-.272-.224-.712-.392-1.32-.504l-1.872-.312c-1.312-.24-2.304-.656-2.976-1.248s-1.008-1.36-1.008-2.304c0-.768.192-1.432.576-1.992.4-.576.968-1.016 1.704-1.32.752-.32 1.64-.48 2.664-.48 1.568 0 2.824.368 3.768 1.104.96.736 1.48 1.76 1.56 3.072h-2.928c-.064-.576-.304-1.032-.72-1.368s-.984-.504-1.704-.504c-.64 0-1.128.128-1.464.384-.336.24-.504.568-.504.984 0 .352.144.632.432.84.304.208.8.384 1.488.528zm11.493-5.064h3.072v12.144h-3.072zm1.536-1.776c-.544 0-.992-.168-1.344-.504s-.528-.752-.528-1.248c0-.32.08-.616.24-.888s.384-.488.672-.648.608-.24.96-.24c.528 0 .968.176 1.32.528.368.336.552.752.552 1.248s-.176.912-.528 1.248-.8.504-1.344.504z"/><path d="m282.768 482.994c-.747-.664-1.12-1.533-1.12-2.609 0-1.075.35-1.853 1.074-2.47.7-.618 1.727-.961 3.057-1.076l2.755-.182c.583-.046.887-.367.887-.939s-.187-.984-.584-1.281c-.397-.275-.957-.412-1.633-.412-1.447 0-2.264.595-2.428 1.761h-2.871c.14-1.303.653-2.333 1.564-3.042.91-.71 2.148-1.053 3.758-1.053 1.611 0 2.894.389 3.805 1.167.887.778 1.33 1.945 1.33 3.478v4.827h.958v2.471h-1.191c-1.4 0-2.147-.687-2.241-2.036-.723 1.601-2.077 2.402-4.084 2.402-1.284 0-2.288-.343-3.034-1.006zm5.835-2.128c.56-.526.841-1.167.841-1.945v-.457l-3.034.228c-1.191.091-1.774.595-1.774 1.533 0 .458.163.801.467 1.052.303.252.747.389 1.307.389.887 0 1.61-.275 2.194-.801z"/><path d="m294.742 474.987c0-.939.257-1.67.794-2.174.513-.503 1.261-.754 2.264-.754h3.827v2.47h-3.898v9.106h-2.987z"/><path d="m304.571 470.364c-.537 0-.958-.16-1.308-.481-.349-.297-.513-.709-.513-1.19s.186-.869.537-1.212c.35-.321.77-.481 1.284-.481.513 0 .957.16 1.307.481.35.343.513.732.513 1.212s-.163.892-.513 1.19c-.35.321-.77.481-1.307.481zm-1.494 13.27v-11.577h2.987v11.577z"/><path d="m308.472 482.994c-.748-.664-1.12-1.533-1.12-2.609 0-1.075.349-1.853 1.073-2.47.7-.618 1.727-.961 3.058-1.076l2.754-.182c.584-.046.887-.367.887-.939s-.187-.984-.584-1.281c-.396-.275-.957-.412-1.633-.412-1.447 0-2.264.595-2.428 1.761h-2.871c.14-1.303.653-2.333 1.564-3.042.91-.71 2.148-1.053 3.758-1.053 1.611 0 2.894.389 3.805 1.167.887.778 1.33 1.945 1.33 3.478v4.827h.958v2.471h-1.191c-1.4 0-2.147-.687-2.241-2.036-.723 1.601-2.077 2.402-4.084 2.402-1.283 0-2.287-.343-3.034-1.006zm5.835-2.128c.56-.526.841-1.167.841-1.945v-.457l-3.034.228c-1.191.091-1.774.595-1.774 1.533 0 .458.163.801.466 1.052.304.252.748.389 1.308.389.887 0 1.61-.275 2.194-.801z"/><path d="m328.497 476.838c0-1.739-.723-2.609-2.17-2.609-.864 0-1.564.298-2.054.892-.513.618-.77 1.533-.77 2.746v5.765h-2.987v-11.575h2.707v1.693c.77-1.373 2.031-2.059 3.828-2.059 1.377 0 2.474.412 3.268 1.213.77.824 1.166 1.945 1.166 3.386v7.344h-2.987v-6.795z"/><path d="m338.645 483.635c-1.377 0-2.451-.366-3.197-1.075-.77-.709-1.144-1.694-1.144-2.974v-5.057h-2.148v-2.47h1.377c.63 0 .957-.298.957-.915v-2.609h2.731v3.524h2.474v2.47h-2.405v5.949c0 .457.233.686.724.686h1.984v2.47h-1.354z"/><path d="m273.602 482.514-5.602-14.897h3.291l4.493 12.42 4.47-12.42h3.338l-5.647 14.903c-.337.89-1.202 1.479-2.17 1.479-.97 0-1.837-.593-2.172-1.485z"/></g><path d="m305.126 338.421c.674-1.796 1.235-4.603 1.685-8.421h4.378c.45 3.818 1.067 6.625 1.853 8.421.786 1.684 2.021 2.919 3.705 3.705 1.685.674 4.435 1.235 8.253 1.685v4.378c-3.818.45-6.568 1.067-8.253 1.853-1.684.674-2.919 1.909-3.705 3.705-.786 1.685-1.403 4.435-1.853 8.253h-4.378c-.45-3.818-1.011-6.568-1.685-8.253-.786-1.796-2.021-3.031-3.705-3.705-1.796-.786-4.603-1.403-8.421-1.853v-4.378c3.93-.45 6.737-1.011 8.421-1.685 1.684-.786 2.919-2.021 3.705-3.705z" fill="#ffd862"/><path d="m194.213 81.5895c.602 5.1839 1.415 8.9512 2.439 11.302 1.083 2.2905 2.77 3.9783 5.058 5.0633 2.348 1.0247 6.112 1.8384 11.29 2.4412v3.797c-5.178.603-8.942 1.447-11.29 2.532-2.288 1.025-3.975 2.713-5.058 5.063-1.024 2.291-1.837 6.028-2.439 11.212h-3.794c-.602-5.184-1.445-8.921-2.529-11.212-1.023-2.35-2.709-4.038-5.058-5.063-2.288-1.085-6.021-1.929-11.2-2.532v-3.797c5.179-.6028 8.912-1.4165 11.2-2.4412 2.349-1.085 4.035-2.7728 5.058-5.0633 1.084-2.3508 1.927-6.1181 2.529-11.302zm-27.458-8.5895c.241 2.0494.542 3.5564.903 4.5208.422.9042 1.084 1.5672 1.987 1.9891.903.3617 2.409.6631 4.516.9042v2.3508c-2.047.2411-3.552.5726-4.516.9946-.903.3617-1.565 1.0247-1.987 1.9891-.361.9042-.662 2.381-.903 4.4304h-2.349c-.24-2.0494-.572-3.5262-.993-4.4304-.422-.9644-1.084-1.6274-1.987-1.9891-.903-.422-2.379-.7535-4.426-.9946v-2.3508c2.047-.2411 3.523-.5425 4.426-.9042.903-.4219 1.565-1.0849 1.987-1.9891.421-.9644.753-2.4714.993-4.5208z" fill="#ffd862"/><path d="m105.368 157.895c.632-1.684 1.158-4.316 1.579-7.895h4.106c.421 3.579 1 6.211 1.736 7.895.737 1.579 1.895 2.737 3.474 3.473 1.579.632 4.158 1.158 7.737 1.579v4.106c-3.579.421-6.158 1-7.737 1.736-1.579.632-2.737 1.79-3.474 3.474-.736 1.579-1.315 4.158-1.736 7.737h-4.106c-.421-3.579-.947-6.158-1.579-7.737-.736-1.684-1.894-2.842-3.473-3.474-1.684-.736-4.3161-1.315-7.895-1.736v-4.106c3.6842-.421 6.316-.947 7.895-1.579 1.579-.736 2.737-1.894 3.473-3.473z" fill="#ffd862"/><path d="m34.0947 114.316c.5053-1.348.9264-3.453 1.2632-6.316h3.2842c.3368 2.863.8 4.968 1.3895 6.316.5895 1.263 1.5158 2.189 2.7789 2.779 1.2632.505 3.3263.926 6.1895 1.263v3.284c-2.8632.337-4.9263.8-6.1895 1.39-1.2631.505-2.1894 1.431-2.7789 2.779-.5895 1.263-1.0527 3.326-1.3895 6.189h-3.2842c-.3368-2.863-.7579-4.926-1.2632-6.189-.5894-1.348-1.5158-2.274-2.7789-2.779-1.3474-.59-3.4526-1.053-6.3158-1.39v-3.284c2.9474-.337 5.0526-.758 6.3158-1.263 1.2631-.59 2.1895-1.516 2.7789-2.779z" fill="#ffd862"/><path d="m291.368 35.8947c.632-1.6842 1.158-4.3158 1.579-7.8947h4.106c.421 3.5789 1 6.2105 1.736 7.8947.737 1.579 1.895 2.7369 3.474 3.4737 1.579.6316 4.158 1.1579 7.737 1.579v4.1052c-3.579.4211-6.158 1-7.737 1.7369-1.579.6315-2.737 1.7894-3.474 3.4737-.736 1.5789-1.315 4.1578-1.736 7.7368h-4.106c-.421-3.579-.947-6.1579-1.579-7.7368-.736-1.6843-1.894-2.8422-3.473-3.4737-1.684-.7369-4.316-1.3158-7.895-1.7369v-4.1052c3.684-.4211 6.316-.9474 7.895-1.579 1.579-.7368 2.737-1.8947 3.473-3.4737z" fill="#ffd862"/></svg>