<svg width="360" height="504" viewBox="0 0 360 504" fill="none"
  xmlns="http://www.w3.org/2000/svg">
  <g clip-path="url(#clip0_1_6)">
    <rect width="360" height="504" fill="white"/>
    <rect width="360" height="504" fill="#028377"/>
    <path d="M131.502 420.4C135.422 420.4 138.862 419.08 140.862 417.48C141.822 416.68 142.102 416.12 142.102 415.2V409.52C142.102 407.8 144.302 407.72 144.302 406.88V406.72C144.302 406.36 143.982 406.12 143.462 406.12L135.942 406.08C135.422 406.08 135.022 406.32 135.022 406.72V406.88C135.022 407.72 137.582 407.8 137.582 409.48V416.04C136.462 416.72 134.702 417.2 132.662 417.2C127.102 417.2 122.182 411.08 122.182 402.88C122.182 397.4 125.382 393.28 129.582 393.28C135.942 393.28 136.222 400.84 139.942 400.84C141.262 400.84 142.142 399.96 142.142 398.6C142.142 395.32 137.622 391.24 130.862 391.24C123.382 391.24 117.422 396.96 117.422 405.88C117.422 413.68 123.702 420.4 131.502 420.4ZM156.813 420.4C162.613 420.4 166.453 416 166.453 410.52C166.453 405 162.213 400.4 155.893 400.4C150.413 400.4 145.973 404.52 145.973 410.2C145.973 415.52 150.013 420.4 156.813 420.4ZM157.413 418.88C153.373 418.88 150.692 413.6 150.692 408.64C150.692 404.24 152.533 401.92 155.372 401.92C159.053 401.92 161.733 406.56 161.733 412.16C161.733 416.48 159.893 418.88 157.413 418.88ZM188.063 416.68V390.72C188.063 389.92 187.623 389.68 186.663 390L182.423 391.36C181.983 391.52 181.703 391.8 181.703 392.16V392.24C181.703 393.12 183.543 393.16 183.543 394.92V402.44C182.263 401.2 180.463 400.4 178.303 400.4C173.063 400.4 168.903 404.48 168.903 410.36C168.903 416.6 173.343 420.4 178.223 420.4C180.423 420.4 182.503 419.52 183.823 417.84L183.943 419.24C183.983 419.68 184.263 420 184.743 420H188.903C189.343 420 189.583 419.8 189.583 419.44V419.32C189.583 418.48 188.063 418.24 188.063 416.68ZM179.303 418.88C175.663 418.8 173.343 414.16 173.463 408.72C173.543 404.48 175.503 401.92 178.463 401.92C181.263 401.92 183.543 404.76 183.543 407.32V413.72C183.543 417.2 181.263 418.88 179.303 418.88ZM204.545 397.48C206.505 397.48 207.785 396.24 207.785 394.48C207.785 392.76 206.505 391.48 204.545 391.48C202.545 391.48 201.225 392.76 201.225 394.48C201.225 396.24 202.545 397.48 204.545 397.48ZM201.545 427.56C204.025 427.56 205.465 426.44 206.345 424.68C206.985 423.36 207.305 422.12 207.305 420V401.24C207.305 400.6 206.745 400.12 205.865 400.56L201.705 402.56C201.265 402.8 201.025 402.96 201.025 403.28V403.4C201.025 404.2 202.505 404.48 202.505 406.16V418.64C202.505 420.68 204.145 421.56 204.145 423.88C204.145 425.04 203.465 425.88 202.425 425.88C200.105 425.88 201.425 422 198.505 422C197.305 422 196.465 422.8 196.465 424C196.465 426.28 198.545 427.56 201.545 427.56ZM229.737 416.24V401.16C229.737 400.56 229.297 400.44 228.457 400.56L224.177 401.24C223.737 401.32 223.497 401.6 223.497 401.96V402.08C223.497 402.88 225.057 403.12 225.057 404.76V413.08C225.057 416.36 223.177 418.48 220.777 418.48C218.177 418.48 216.777 416.32 216.777 412.12L216.857 401.16C216.857 400.56 216.337 400.44 215.497 400.56L211.297 401.24C210.857 401.32 210.577 401.6 210.577 401.96V402.08C210.577 402.88 212.097 403.12 212.097 404.76V411.68C212.097 417.52 215.257 420.4 219.537 420.4C222.377 420.4 224.417 419.28 225.537 417.28C225.497 419.52 226.657 420.24 228.777 420.24C230.737 420.24 231.777 420.04 231.777 419.24C231.777 417.92 229.737 419.28 229.737 416.24ZM234.745 420H240.825C241.345 420 241.705 419.76 241.705 419.4V419.28C241.705 418.36 240.065 418.24 240.065 416.68V390.68C240.065 390.08 239.545 389.6 238.625 390.04L234.585 392.04C234.185 392.24 233.905 392.4 233.905 392.76V392.88C233.905 393.6 235.385 393.92 235.385 395.6V416.68C235.385 418.24 233.905 418.36 233.905 419.28V419.4C233.905 419.76 234.225 420 234.745 420Z" fill="#F8F6EF"/>
    <path d="M124.562 454H129.782V453.148H125.606V450.04H128.798V449.188H125.606V446.272H129.566V445.42H124.562V454ZM131.287 454H132.283V450.196C132.283 449.068 133.111 448.48 134.035 448.48C135.043 448.48 135.511 448.972 135.511 450.076V454H136.507V450.148C136.507 448.324 135.595 447.616 134.299 447.616C133.267 447.616 132.571 448.132 132.283 448.72V447.724H131.287V454ZM141.635 454H142.631V450.196C142.631 449.068 143.459 448.48 144.383 448.48C145.391 448.48 145.859 448.972 145.859 450.076V454H146.855V450.148C146.855 448.324 145.943 447.616 144.647 447.616C143.615 447.616 142.919 448.132 142.631 448.72V444.724H141.635V454ZM149.311 446.416C149.671 446.416 149.971 446.116 149.971 445.756C149.971 445.396 149.671 445.096 149.311 445.096C148.951 445.096 148.651 445.396 148.651 445.756C148.651 446.116 148.951 446.416 149.311 446.416ZM148.831 454H149.827V447.724H148.831V454ZM151.889 454H152.897V444.724H151.889V454ZM156.88 454.108C158.404 454.108 159.184 453.34 159.184 452.2C159.184 450.868 158.272 450.58 156.976 450.34C155.824 450.136 155.512 449.908 155.512 449.344C155.512 448.804 155.98 448.444 156.7 448.444C157.492 448.444 157.876 448.744 158.02 449.428H158.98C158.812 448.072 157.84 447.616 156.712 447.616C155.728 447.616 154.588 448.216 154.588 449.38C154.588 450.472 155.14 450.928 156.772 451.228C157.744 451.408 158.236 451.624 158.236 452.284C158.236 452.956 157.816 453.28 156.868 453.28C155.86 453.28 155.464 452.812 155.392 452.068H154.42C154.48 453.352 155.38 454.108 156.88 454.108ZM163.269 454.108C164.685 454.108 165.729 453.448 165.945 452.188H164.949C164.817 452.92 164.253 453.28 163.281 453.28C161.997 453.28 161.313 452.488 161.265 451.06H165.993V450.736C165.993 448.492 164.625 447.616 163.173 447.616C161.445 447.616 160.233 448.936 160.233 450.832V450.928C160.233 452.86 161.493 454.108 163.269 454.108ZM161.301 450.256C161.469 449.14 162.153 448.444 163.173 448.444C164.205 448.444 164.877 448.96 164.973 450.256H161.301ZM167.522 454H168.518V450.196C168.518 449.068 169.346 448.48 170.27 448.48C171.278 448.48 171.746 448.972 171.746 450.076V454H172.742V450.148C172.742 448.324 171.83 447.616 170.534 447.616C169.502 447.616 168.806 448.132 168.518 448.72V447.724H167.522V454ZM178.085 454H179.081V448.564H180.617V447.724H179.081V446.596C179.081 445.96 179.345 445.516 179.993 445.516C180.269 445.516 180.521 445.576 180.701 445.648V444.808C180.449 444.724 180.281 444.688 179.957 444.688C178.709 444.688 178.085 445.432 178.085 446.704V447.724H177.185V448.564H178.085V454ZM182.018 454H183.014V450.556C183.014 449.008 183.818 448.612 185.078 448.552V447.616C183.95 447.652 183.41 448.144 183.014 448.852V447.724H182.018V454ZM188.043 454.108C188.967 454.108 189.531 453.796 189.999 453.208V454H190.995V449.86C190.995 448.108 189.903 447.616 188.703 447.616C187.491 447.616 186.351 448.144 186.219 449.572H187.215C187.311 448.804 187.791 448.444 188.655 448.444C189.615 448.444 189.999 448.864 189.999 449.86V450.316H189.099C187.491 450.316 185.955 450.808 185.955 452.26C185.955 453.544 186.879 454.108 188.043 454.108ZM188.139 453.316C187.263 453.316 186.951 452.908 186.951 452.26C186.951 451.336 187.875 451.024 189.135 451.024H189.999V451.804C189.999 452.776 189.195 453.316 188.139 453.316ZM198.395 454H199.643L202.607 445.42H201.623L199.067 452.992L196.511 445.42H195.479L198.395 454ZM205.129 454.108C206.053 454.108 206.617 453.796 207.085 453.208V454H208.081V449.86C208.081 448.108 206.989 447.616 205.789 447.616C204.577 447.616 203.437 448.144 203.305 449.572H204.301C204.397 448.804 204.877 448.444 205.741 448.444C206.701 448.444 207.085 448.864 207.085 449.86V450.316H206.185C204.577 450.316 203.041 450.808 203.041 452.26C203.041 453.544 203.965 454.108 205.129 454.108ZM205.225 453.316C204.349 453.316 204.037 452.908 204.037 452.26C204.037 451.336 204.961 451.024 206.221 451.024H207.085V451.804C207.085 452.776 206.281 453.316 205.225 453.316ZM210.037 454H211.033V450.556C211.033 449.008 211.837 448.612 213.097 448.552V447.616C211.969 447.652 211.429 448.144 211.033 448.852V447.724H210.037V454ZM215.053 446.416C215.413 446.416 215.713 446.116 215.713 445.756C215.713 445.396 215.413 445.096 215.053 445.096C214.693 445.096 214.393 445.396 214.393 445.756C214.393 446.116 214.693 446.416 215.053 446.416ZM214.573 454H215.569V447.724H214.573V454ZM219.18 454.108C220.104 454.108 220.668 453.796 221.136 453.208V454H222.132V449.86C222.132 448.108 221.04 447.616 219.84 447.616C218.628 447.616 217.488 448.144 217.356 449.572H218.352C218.448 448.804 218.928 448.444 219.792 448.444C220.752 448.444 221.136 448.864 221.136 449.86V450.316H220.236C218.628 450.316 217.092 450.808 217.092 452.26C217.092 453.544 218.016 454.108 219.18 454.108ZM219.276 453.316C218.4 453.316 218.088 452.908 218.088 452.26C218.088 451.336 219.012 451.024 220.272 451.024H221.136V451.804C221.136 452.776 220.332 453.316 219.276 453.316ZM224.088 454H225.084V450.196C225.084 449.068 225.912 448.48 226.836 448.48C227.844 448.48 228.312 448.972 228.312 450.076V454H229.308V450.148C229.308 448.324 228.396 447.616 227.1 447.616C226.068 447.616 225.372 448.132 225.084 448.72V447.724H224.088V454ZM233.168 454.084C233.576 454.084 233.816 454.024 234.02 453.952V453.112C233.804 453.196 233.564 453.244 233.252 453.244C232.748 453.244 232.472 452.944 232.472 452.332V448.564H233.936V447.724H232.472V446.296H231.476V447.724H230.576V448.564H231.476V452.428C231.476 453.412 232.028 454.084 233.168 454.084Z" fill="#F8F6EF"/>
    <path fill-rule="evenodd" clip-rule="evenodd" d="M382.28 161.52C390.44 201.511 372.891 240.209 352.226 275.406C332.86 308.391 308.496 341.481 271.325 350.503C235.687 359.152 204.075 333.423 170.104 319.607C129.659 303.158 70.9062 304.951 57.305 263.462C43.7061 221.98 90.8437 187.836 114.982 151.463C135.101 121.147 151.46 88.5076 184.092 72.4153C222.783 53.3351 268.217 38.8032 307.563 56.493C348.299 74.808 373.352 117.757 382.28 161.52Z" fill="#02AE9E"/>
    <path d="M186.424 314.898C207.51 311.806 260.948 337.723 274.704 321.445C287.883 305.851 250.384 255.3 253.802 235.172C256.537 219.061 296.817 204.708 294.758 188.497C292.381 169.776 253.526 152.065 241.411 137.596C226.35 119.611 209.822 78.8323 186.424 80.5159C162.769 82.218 153.627 128.304 136.901 145.116C123.621 158.465 70.6841 160.777 64.6141 178.601C58.5079 196.531 102.463 221.037 104.637 239.853C107.551 265.081 72.8863 304.276 91.5982 321.445C109.96 338.293 161.768 318.514 186.424 314.898Z" fill="#F8F6EF"/>
    <path d="M178.903 309.855C199.536 306.829 251.825 332.189 265.285 316.261C278.18 301.003 241.487 251.539 244.832 231.844C247.508 216.079 286.922 202.035 284.907 186.173C282.581 167.855 244.562 150.525 232.707 136.367C217.971 118.769 201.798 78.8674 178.903 80.5148C155.758 82.1803 146.812 127.275 130.445 143.726C117.451 156.787 65.6534 159.05 59.714 176.49C53.7392 194.034 96.7491 218.013 98.8758 236.425C101.727 261.109 67.8083 299.461 86.1176 316.261C104.084 332.747 154.778 313.393 178.903 309.855Z" fill="#EDE8D7"/>
    <path d="M273.333 318.913C270.328 322.468 264.973 323.916 257.746 323.825C250.581 323.734 242.009 322.136 233.079 320.09C229.334 319.232 225.501 318.289 221.699 317.353C216.535 316.082 211.428 314.826 206.675 313.816C198.418 312.061 190.806 310.947 185.179 311.772C178.869 312.697 170.854 314.651 162.188 316.764L162.101 316.785C153.425 318.9 144.054 321.185 134.888 322.831C125.684 324.483 116.77 325.475 109.051 325.022C101.311 324.569 94.9864 322.676 90.7314 318.772C86.4774 314.868 85.1768 309.691 85.7284 303.449C86.2852 297.149 88.7178 289.966 91.7253 282.351C92.6936 279.899 93.7237 277.398 94.7618 274.877C96.9115 269.657 99.0962 264.352 100.84 259.225C103.429 251.612 105.16 244.095 104.384 237.375C103.78 232.144 100.326 226.735 95.9332 221.436C92.3261 217.086 87.9188 212.622 83.5641 208.211C82.5762 207.211 81.591 206.213 80.6185 205.22C75.312 199.801 70.3821 194.521 67.1514 189.51C63.8993 184.465 62.6058 180.057 63.912 176.222C65.2321 172.346 69.2155 169.063 75.2253 166.138C81.1711 163.244 88.7253 160.876 96.6268 158.617C98.6256 158.046 100.648 157.481 102.668 156.917C108.579 155.266 114.474 153.62 119.721 151.823C126.714 149.427 132.882 146.663 136.511 143.015C140.902 138.601 144.733 132.339 148.355 125.545C150.174 122.135 151.957 118.558 153.74 114.976L153.824 114.808C155.583 111.275 157.343 107.741 159.153 104.324C162.842 97.3654 166.686 91.0059 171.031 86.2908C175.366 81.5874 180.08 78.6494 185.514 78.2584C190.923 77.8692 196.03 79.9184 200.964 83.6785C205.912 87.4487 210.583 92.8626 215.062 98.9914C219.041 104.436 222.815 110.369 226.474 116.12C226.93 116.838 227.385 117.553 227.838 118.264C231.9 124.636 235.846 130.698 239.721 135.326C242.908 139.132 247.786 143.081 253.222 147.108C255.828 149.038 258.589 151.005 261.385 152.997L261.79 153.285C264.728 155.379 267.701 157.501 270.595 159.654C276.393 163.969 281.809 168.362 285.913 172.814C290.038 177.288 292.683 181.656 293.223 185.907C293.654 189.305 291.894 192.831 288.419 196.648C284.969 200.437 280.113 204.208 274.972 208.07C274.378 208.516 273.781 208.963 273.182 209.411C268.647 212.805 264.024 216.266 260.275 219.775C256.066 223.714 252.671 227.969 251.89 232.567C250.952 238.092 252.821 245.444 255.672 253.318C257.842 259.311 260.667 265.822 263.497 272.344C264.417 274.465 265.338 276.587 266.237 278.693C269.923 287.331 273.245 295.699 274.834 302.857C276.445 310.112 276.15 315.58 273.333 318.913Z" stroke="#01574F" stroke-width="3.09481"/>
    <path fill-rule="evenodd" clip-rule="evenodd" d="M177.323 186.927C180.136 186.768 183.033 187.474 184.906 189.579C186.896 191.815 187.802 194.948 187.039 197.843C186.302 200.641 183.824 202.458 181.195 203.666C178.639 204.84 175.664 205.546 173.191 204.205C170.817 202.917 170.085 200.044 169.615 197.385C169.181 194.935 169.269 192.383 170.745 190.38C172.291 188.283 174.722 187.075 177.323 186.927Z" fill="#8E8B81"/>
    <path fill-rule="evenodd" clip-rule="evenodd" d="M171.756 221.135C173.632 219.033 176.18 217.484 178.992 217.648C181.98 217.821 184.837 219.397 186.345 221.983C187.802 224.482 187.334 227.52 186.329 230.233C185.352 232.871 183.748 235.473 181.051 236.273C178.462 237.041 175.913 235.528 173.699 233.98C171.66 232.554 169.918 230.687 169.546 228.227C169.156 225.651 170.02 223.078 171.756 221.135Z" fill="#8E8B81"/>
    <path d="M310.033 279.077C312.888 279.209 319.261 283.988 321.488 282.197C323.622 280.481 319.978 272.866 320.943 270.304C321.715 268.253 327.385 267.393 327.529 265.206C327.695 262.68 323.032 259.355 321.807 257.14C320.284 254.387 319.151 248.596 316.027 248.219C312.869 247.838 310.487 253.672 307.855 255.458C305.765 256.875 298.737 255.826 297.482 258.017C296.219 260.222 301.38 264.572 301.185 267.105C300.923 270.501 295.357 274.775 297.381 277.514C299.368 280.202 306.695 278.923 310.033 279.077Z" fill="#EDE8D7"/>
    <path d="M68.521 73.5544C70.1683 72.9749 74.8725 74.2207 75.7234 72.6959C76.5386 71.235 72.7297 67.758 72.6888 66.0856C72.656 64.747 75.6702 62.9607 75.2503 61.6893C74.7654 60.221 71.3627 59.4063 70.1614 58.4328C68.668 57.2227 66.699 54.2025 64.8437 54.705C62.9681 55.213 62.9559 59.0628 61.8745 60.6773C61.0159 61.9591 56.795 62.9757 56.5865 64.5043C56.3767 66.0421 60.2962 67.3233 60.7662 68.8024C61.3963 70.7855 59.2235 74.4815 60.9977 75.5687C62.7387 76.6356 66.5949 74.232 68.521 73.5544Z" fill="#EDE8D7"/>
  </g>
  <defs>
    <clipPath id="clip0_1_6">
      <rect width="360" height="504" fill="white"/>
    </clipPath>
  </defs>
</svg>
