<svg width="360" height="504" viewBox="0 0 360 504" fill="none"
  xmlns="http://www.w3.org/2000/svg">
  <rect width="360" height="504" fill="#FBFAF7"/>
  <mask id="mask0_604_53" style="mask-type:alpha" maskUnits="userSpaceOnUse" x="144" y="93" width="321" height="319">
    <path d="M461.208 359.313C482.14 321.658 409.776 288.412 405.638 245.529C402.674 214.809 447.358 192.95 442.218 162.517C437.125 132.368 410.158 104.842 380.571 97.1235C351.14 89.4447 325.787 123.948 295.371 124.205C262.236 124.484 226.523 77.0408 201.388 98.6362C175.2 121.136 218.223 167.229 207.208 199.952C197.067 230.081 141.384 237.18 144.096 268.855C146.673 298.963 198.056 295.794 217.399 319.01C239.464 345.493 228.646 400.556 261.771 410.094C294.148 419.416 311.804 363.907 344.455 355.594C382.969 345.787 441.899 394.049 461.208 359.313Z" fill="#F4F1E7"/>
  </mask>
  <g mask="url(#mask0_604_53)">
    <rect width="360" height="504" fill="#F4F1E7"/>
  </g>
  <path d="M286.521 67.5543C288.168 66.9748 292.872 68.2206 293.723 66.6957C294.539 65.2349 290.73 61.7579 290.689 60.0854C290.656 58.7469 293.67 56.9606 293.25 55.6892C292.765 54.2209 289.363 53.4062 288.161 52.4327C286.668 51.2225 284.699 48.2024 282.844 48.7049C280.968 49.2129 280.956 53.0627 279.874 54.6772C279.016 55.959 274.795 56.9756 274.586 58.5042C274.377 60.0419 278.296 61.3232 278.766 62.8023C279.396 64.7854 277.224 68.4814 278.998 69.5686C280.739 70.6354 284.595 68.2319 286.521 67.5543Z" fill="#EDE8D7"/>
  <path d="M37.521 463.554C39.1683 462.975 43.8725 464.221 44.7234 462.696C45.5386 461.235 41.7297 457.758 41.6888 456.086C41.656 454.747 44.6702 452.961 44.2503 451.689C43.7654 450.221 40.3627 449.406 39.1614 448.433C37.668 447.223 35.699 444.202 33.8437 444.705C31.9681 445.213 31.9559 449.063 30.8745 450.677C30.0159 451.959 25.795 452.976 25.5865 454.504C25.3767 456.042 29.2962 457.323 29.7662 458.802C30.3963 460.785 28.2235 464.481 29.9977 465.569C31.7387 466.635 35.5949 464.232 37.521 463.554Z" fill="#EDE8D7"/>
  <path d="M142.452 387.995C145.308 388.127 151.68 392.906 153.908 391.114C156.042 389.398 152.397 381.784 153.362 379.221C154.134 377.17 159.804 376.311 159.948 374.124C160.114 371.598 155.451 368.273 154.226 366.058C152.703 363.305 151.57 357.513 148.447 357.137C145.289 356.756 142.906 362.59 140.274 364.375C138.185 365.793 131.156 364.744 129.901 366.935C128.639 369.14 133.799 373.49 133.604 376.023C133.342 379.419 127.776 383.693 129.801 386.432C131.787 389.119 139.114 387.84 142.452 387.995Z" fill="#EDE8D7"/>
</svg>
