<svg width="361" height="504" viewBox="0 0 361 504" fill="none"
  xmlns="http://www.w3.org/2000/svg">
  <rect x="1" width="360" height="504" fill="#FBFAF7"/>
  <path d="M169.744 168.078C171.125 167.588 175.071 168.642 175.784 167.351C176.468 166.115 173.274 163.172 173.239 161.756C173.212 160.623 175.74 159.111 175.388 158.034C174.981 156.791 172.127 156.102 171.12 155.278C169.867 154.253 168.216 151.697 166.66 152.122C165.087 152.552 165.076 155.811 164.17 157.178C163.45 158.263 159.909 159.123 159.735 160.417C159.559 161.719 162.846 162.804 163.24 164.056C163.769 165.734 161.946 168.863 163.434 169.783C164.894 170.686 168.128 168.652 169.744 168.078Z" fill="#EDE8D7"/>
  <path d="M199.04 83.8001C201.435 83.9119 206.779 87.9572 208.647 86.4409C210.437 84.9883 207.381 78.5426 208.19 76.3733C208.837 74.637 213.593 73.9094 213.713 72.0581C213.852 69.9202 209.942 67.1052 208.914 65.2304C207.637 62.8999 206.687 57.9973 204.067 57.6784C201.419 57.356 199.421 62.2944 197.213 63.806C195.461 65.0061 189.566 64.1179 188.514 65.9729C187.455 67.8389 191.783 71.5218 191.619 73.6658C191.4 76.5405 186.731 80.1583 188.429 82.4769C190.095 84.752 196.24 83.6693 199.04 83.8001Z" fill="#EDE8D7"/>
  <mask id="mask0_0_5" style="mask-type:alpha" maskUnits="userSpaceOnUse" x="-33" y="228" width="312" height="341">
    <path d="M102.387 228.346C66.4202 229.956 60.801 283.081 38.4133 311.267C17.0383 338.179 -16.5545 355.315 -24.9293 388.64C-34.9412 428.48 -40.5866 478.968 -10.8554 507.319C18.8318 535.628 68.2845 506.287 108.238 515.624C152.71 526.016 190.823 583.887 231.968 564.062C272.399 544.581 260.718 482.873 268.064 438.614C273.721 404.534 288.635 366.857 269.471 338.113C251.1 310.559 206.65 323.165 178.968 304.979C147.844 284.533 139.596 226.682 102.387 228.346" fill="#F4F1E7"/>
  </mask>
  <g mask="url(#mask0_0_5)">
    <rect x="0.75415" width="360" height="504" fill="#F4F1E7"/>
  </g>
  <mask id="mask1_0_5" style="mask-type:alpha" maskUnits="userSpaceOnUse" x="61" y="439" width="96" height="25">
    <path fill-rule="evenodd" clip-rule="evenodd" d="M64.9191 447.619L68.6741 455.769L72.4141 447.619H76.1841L68.6441 463.13L61.1641 447.619H64.9191ZM88.6261 447.619H91.9931V462.132H88.6261V460.612C87.2451 461.904 85.7601 462.549 84.1711 462.549C82.1641 462.549 80.5051 461.824 79.1941 460.374C77.8921 458.894 77.2421 457.046 77.2421 454.831C77.2421 452.655 77.8921 450.842 79.1941 449.392C80.4951 447.942 82.1241 447.217 84.0811 447.217C85.7701 447.217 87.2851 447.912 88.6261 449.303V447.619ZM80.6691 454.831C80.6691 456.221 81.0411 457.354 81.7861 458.228C82.5511 459.112 83.5151 459.554 84.6771 459.554C85.9191 459.554 86.9221 459.127 87.6871 458.273C88.4521 457.389 88.8341 456.266 88.8341 454.905C88.8341 453.544 88.4521 452.422 87.6871 451.538C86.9221 450.673 85.9291 450.241 84.7071 450.241C83.5551 450.241 82.5911 450.678 81.8161 451.553C81.0511 452.437 80.6691 453.529 80.6691 454.831ZM96.2251 447.619H99.5781V448.915C100.194 448.269 100.74 447.827 101.217 447.589C101.704 447.341 102.28 447.217 102.945 447.217C103.829 447.217 104.753 447.505 105.717 448.081L104.182 451.15C103.546 450.693 102.925 450.465 102.32 450.465C100.492 450.465 99.5781 451.846 99.5781 454.607V462.132H96.2251V447.619ZM111.469 447.619V462.132H108.116V447.619H111.469ZM107.609 441.584C107.609 440.998 107.823 440.491 108.25 440.064C108.677 439.637 109.189 439.423 109.785 439.423C110.391 439.423 110.907 439.637 111.334 440.064C111.762 440.481 111.975 440.993 111.975 441.599C111.975 442.205 111.762 442.721 111.334 443.149C110.917 443.576 110.406 443.789 109.8 443.789C109.194 443.789 108.677 443.576 108.25 443.149C107.823 442.721 107.609 442.2 107.609 441.584ZM126.414 447.619H129.781V462.132H126.414V460.612C125.033 461.904 123.548 462.549 121.959 462.549C119.952 462.549 118.293 461.824 116.982 460.374C115.68 458.894 115.03 457.046 115.03 454.831C115.03 452.655 115.68 450.842 116.982 449.392C118.283 447.942 119.912 447.217 121.869 447.217C123.558 447.217 125.073 447.912 126.414 449.303V447.619ZM118.457 454.831C118.457 456.221 118.829 457.354 119.574 458.228C120.339 459.112 121.303 459.554 122.465 459.554C123.707 459.554 124.71 459.127 125.475 458.273C126.24 457.389 126.623 456.266 126.623 454.905C126.623 453.544 126.24 452.422 125.475 451.538C124.71 450.673 123.717 450.241 122.495 450.241C121.343 450.241 120.379 450.678 119.604 451.553C118.839 452.437 118.457 453.529 118.457 454.831ZM134.013 447.619H137.381V448.96C138.553 447.798 139.874 447.217 141.344 447.217C143.033 447.217 144.349 447.748 145.293 448.811C146.108 449.715 146.515 451.19 146.515 453.236V462.132H143.147V454.026C143.147 452.596 142.949 451.607 142.551 451.061C142.164 450.505 141.459 450.226 140.435 450.226C139.323 450.226 138.533 450.594 138.066 451.329C137.609 452.054 137.381 453.321 137.381 455.129V462.132H134.013V447.619ZM154.219 450.748V462.132H150.866V450.748H149.435V447.619H150.866V442.299H154.219V447.619H156.826V450.748H154.219Z" fill="white"/>
  </mask>
  <g mask="url(#mask1_0_5)">
    <path fill-rule="evenodd" clip-rule="evenodd" d="M650.657 820.775H-75.5833V300.298H650.657V820.775Z" fill="#03DAC6"/>
    <path fill-rule="evenodd" clip-rule="evenodd" d="M95.942 486.687C95.942 496.217 95.6301 500.375 95.6301 507.432C95.6301 514.489 82.2281 504.296 82.2281 504.296L64.551 496.504L63.9271 506.179C63.9271 506.179 59.1121 508.124 52.0681 499.504C45.0231 490.885 39.2121 485.574 26.4681 475.612C13.724 465.65 4.45105 479.293 4.45105 479.293L7.30305 472.229V467.255L9.71205 462.035L29.889 467.166L44.3991 471.216C44.3991 471.216 46.0241 478.973 53.0051 476.273C55.4211 475.339 57.4831 474.632 59.9851 473.574C64.7131 471.574 69.3661 469.368 69.3661 469.368L93.899 466.899L95.942 486.687Z" fill="#EDE8D7"/>
    <path fill-rule="evenodd" clip-rule="evenodd" d="M177.108 445.383C169.951 454.98 168.694 465.101 169.551 474.744L149.881 465.408L146.452 440.623L156.293 421.879C156.293 421.879 167.766 436.715 177.108 445.383" fill="#03DAC6"/>
    <path fill-rule="evenodd" clip-rule="evenodd" d="M212.211 435.798C212.211 435.798 168.767 397.565 157.308 388.139C145.849 378.713 140.319 376.907 140.319 376.907H164.245L191.445 375.102L218.87 386.839L273.381 431.983L291.778 456.135C291.778 456.135 290.267 470.638 279.808 467.181C268.657 463.496 259.048 456.813 259.048 456.813L255.236 438.416L214.017 422.051L212.211 435.798Z" fill="#FFC4BC"/>
    <path fill-rule="evenodd" clip-rule="evenodd" d="M180.717 503.073C182.721 495.26 170.41 498.988 169.541 490.592C168.673 482.196 176.433 478.195 176.433 478.195C176.433 478.195 164.756 471.44 159.641 463.14C154.526 454.841 152.499 448.375 152.499 448.375C152.499 448.375 154.14 454.841 142.366 456.964C136.8 457.968 131.943 460.275 130.785 463.72C129.494 467.562 128.976 475.714 135.235 481.413C147.105 492.222 151.92 500.681 151.92 500.681C151.92 500.681 166.107 500.102 167.072 516.122C167.606 524.989 165.686 532.082 165.452 537.254C165.264 541.426 168.972 547.458 173.152 549.053C182.513 552.623 189.461 549.031 189.461 549.031L196.839 540.236C196.839 540.236 184.97 538.85 180.1 530.116C175.04 521.04 178.574 511.427 180.717 503.073" fill="#E61A6B"/>
    <path fill-rule="evenodd" clip-rule="evenodd" d="M82.2281 394.268V438.084C82.2281 438.084 82.2281 444.008 84.6461 454.501C84.6461 454.501 98.8321 465.572 112.367 460.789C115.605 459.645 113.962 451.446 113.097 448.802C111.61 444.257 108.59 439.574 104.141 438.084C99.7041 436.599 98.7691 437.945 98.7141 435.992C98.6521 433.792 98.3341 434.289 103.657 434.963C113.711 436.236 106.046 425.355 98.8991 417.087C97.0351 414.931 98.9711 408.39 95.7081 405.112C90.0291 399.408 82.2281 394.268 82.2281 394.268" fill="#E61A6B"/>
    <path fill-rule="evenodd" clip-rule="evenodd" d="M146.882 442.851C146.882 442.851 138.412 448.47 132.103 441.158C127.478 435.798 133.457 431.005 130.975 427.734C128.494 424.462 120.597 424.237 120.597 420.288C120.597 416.34 118.679 415.324 118.679 415.324C118.679 415.324 127.704 410.023 138.083 416.904C148.461 423.785 146.882 442.851 146.882 442.851" fill="#E61A6B"/>
    <path fill-rule="evenodd" clip-rule="evenodd" d="M133.435 414.537C128 410.216 113.223 409.188 113.223 386.938C113.223 386.938 109.095 386.886 106.152 386.16V394.16C106.152 394.16 103.53 397.098 105.123 399.95C102.776 403.408 98.2361 397.16 96.1371 392.017C94.0371 386.873 93.5541 384.636 93.5541 384.636C93.5541 384.636 83.5261 382.149 82.2281 394.268C82.2281 394.268 85.2031 399.739 97.7621 416.959C105.218 427.182 103.913 431.553 101.062 432.74C99.1111 433.552 95.6611 433.465 94.9991 435.024C93.3931 438.806 102.194 438.472 108.765 444.04C113.773 448.284 112.866 456.539 106.63 459.084C106.63 459.084 113.275 461.822 122.566 456.159C128.371 452.621 128.483 451.356 126.518 448.375C123.818 444.279 121.705 445.702 118.679 441.624C115.677 437.577 116.006 434.923 115.202 433.4C114.598 432.256 113.64 431.395 113.771 430.378C113.979 428.755 116.551 428.794 117.073 426.742C117.595 424.69 117.639 421.408 119.684 418.648C121.915 415.637 125.664 413.286 133.435 414.537" fill="#333333"/>
    <path fill-rule="evenodd" clip-rule="evenodd" d="M146.881 442.85C146.881 442.85 158.392 433.612 156.292 421.879C154.192 410.146 151.287 398.395 155.02 392.016C155.02 392.016 148.997 383 137.756 382.964C131.601 382.945 123.728 385.832 120.048 386.616C120.048 392.777 120.714 396.046 123.979 400.004C127.504 404.277 131.787 406.544 135.195 409.607C140.772 414.617 142.92 418.886 144.862 426.362C146.667 433.309 144.575 439.853 140.532 447.402C140.541 448.811 145.377 445.119 146.881 442.85" fill="#333333"/>
    <path fill-rule="evenodd" clip-rule="evenodd" d="M146.882 442.851C146.882 442.851 151.743 443.372 152.499 448.375C153.256 453.378 150.021 456.748 140.047 458.5C130.073 460.252 127.054 466.986 136.921 476.693C146.786 486.4 151.921 494.601 151.921 500.681C146.053 500.508 138.626 501.423 133.844 499.121C127.814 496.219 127.336 487.695 122.61 482.123C117.885 476.552 114.641 475.377 109.797 474.744C101.301 473.634 95.9421 480.248 95.9421 486.687C95.9421 486.687 86.8081 463.713 59.9861 473.574C59.9861 473.574 47.8551 468.069 47.8551 451.491V433.948L65.4041 433.168C65.4041 433.168 65.9211 442.018 67.6161 450.102C68.8801 456.132 71.4071 459.552 75.1701 461.212C80.8371 463.712 85.9701 460.197 84.6461 454.501C93.1341 457.342 109.947 462.664 123.764 455.336C127.351 453.434 126.519 448.375 126.519 448.375C126.519 448.375 139.699 451.463 146.882 442.851" fill="#423D89"/>
  </g>
</svg>
