<svg fill="none" height="504" viewBox="0 0 360 504" width="360" xmlns="http://www.w3.org/2000/svg"><path d="m0 0h360v504h-360z" fill="#090055"/><path d="m24.0632 149.211c.3368-.899.6175-2.302.8421-4.211h2.1894c.2246 1.909.5334 3.312.9264 4.211.3929.842 1.0105 1.459 1.8526 1.852.8421.337 2.2175.618 4.1263.842v2.19c-1.9088.224-3.2842.533-4.1263.926-.8421.337-1.4597.954-1.8526 1.853-.393.842-.7018 2.217-.9264 4.126h-2.1894c-.2246-1.909-.5053-3.284-.8421-4.126-.393-.899-1.0106-1.516-1.8527-1.853-.8982-.393-2.3017-.702-4.2105-.926v-2.19c1.9649-.224 3.3684-.505 4.2105-.842.8421-.393 1.4597-1.01 1.8527-1.852z" fill="#ffd862"/></svg>