<svg fill="none" height="504" viewBox="0 0 360 504" width="360" xmlns="http://www.w3.org/2000/svg"><path d="m0 0h360v504h-360z" fill="#fffbfa"/><g fill="#111"><path d="m34.7685 482.994c-.7473-.664-1.1201-1.533-1.1201-2.609 0-1.075.3499-1.853 1.0735-2.47.6998-.618 1.7274-.961 3.0575-1.076l2.7543-.182c.5837-.046.887-.367.887-.939s-.1864-.984-.5837-1.281c-.3965-.275-.9573-.412-1.6334-.412-1.4471 0-2.2638.595-2.4273 1.761h-2.8712c.1398-1.303.6533-2.333 1.564-3.042.9099-.71 2.1476-1.053 3.7582-1.053 1.6105 0 2.894.389 3.8048 1.167.887.778 1.3301 1.945 1.3301 3.478v4.827h.9573v2.471h-1.1903c-1.4004 0-2.1477-.687-2.2409-2.036-.7235 1.601-2.0773 2.402-4.0844 2.402-1.2835 0-2.2874-.343-3.0338-1.006zm5.8347-2.128c.56-.526.8404-1.167.8404-1.945v-.457l-3.0339.228c-1.1903.091-1.774.595-1.774 1.533 0 .458.1635.801.4668 1.052.3033.252.7472.389 1.3072.389.8871 0 1.6106-.275 2.1943-.801z"/><path d="m46.7422 474.987c0-.939.2567-1.67.7938-2.174.5134-.503 1.2606-.754 2.2638-.754h3.8276v2.47h-3.898v9.106h-2.9872z"/><path d="m56.5706 470.364c-.5371 0-.9573-.16-1.3072-.481-.3499-.297-.5134-.709-.5134-1.19s.1864-.869.5371-1.212c.3499-.321.7701-.481 1.2835-.481.5135 0 .9574.16 1.3073.481.3499.343.5134.732.5134 1.212s-.1635.892-.5134 1.19c-.3499.321-.7701.481-1.3073.481zm-1.4936 13.27v-11.577h2.9873v11.577z"/><path d="m60.4716 482.994c-.7472-.664-1.12-1.533-1.12-2.609 0-1.075.3499-1.853 1.0734-2.47.6998-.618 1.7274-.961 3.0576-1.076l2.7542-.182c.5837-.046.887-.367.887-.939s-.1864-.984-.5837-1.281c-.3965-.275-.9573-.412-1.6334-.412-1.447 0-2.2638.595-2.4273 1.761h-2.8711c.1398-1.303.6532-2.333 1.5639-3.042.9099-.71 2.1477-1.053 3.7582-1.053s2.8941.389 3.8048 1.167c.887.778 1.3301 1.945 1.3301 3.478v4.827h.9573v2.471h-1.1903c-1.4004 0-2.1476-.687-2.2408-2.036-.7236 1.601-2.0774 2.402-4.0844 2.402-1.2835 0-2.2875-.343-3.0339-1.006zm5.8355-2.128c.56-.526.8404-1.167.8404-1.945v-.457l-3.0338.228c-1.1903.091-1.7741.595-1.7741 1.533 0 .458.1635.801.4669 1.052.3033.252.7472.389 1.3072.389.887 0 1.6105-.275 2.1942-.801z"/><path d="m80.4972 476.838c0-1.739-.7235-2.609-2.1706-2.609-.8633 0-1.5639.298-2.0536.892-.5134.618-.7701 1.533-.7701 2.746v5.765h-2.9873v-11.575h2.7077v1.693c.7701-1.373 2.0307-2.059 3.8277-2.059 1.3767 0 2.4738.412 3.2676 1.213.7702.824 1.1667 1.945 1.1667 3.386v7.344h-2.9873v-6.795z"/><path d="m90.645 483.635c-1.3767 0-2.451-.366-3.1974-1.075-.7701-.709-1.1437-1.694-1.1437-2.974v-5.057h-2.1477v-2.47h1.3768c.6303 0 .9573-.298.9573-.915v-2.609h2.7306v3.524h2.4738v2.47h-2.4044v5.949c0 .457.233.686.7236.686h1.9841v2.47h-1.3538z"/><path d="m25.6017 482.514-5.6017-14.897h3.2906l4.4931 12.42 4.4703-12.42h3.338l-5.6467 14.903c-.3369.89-1.2026 1.479-2.1706 1.479-.9696 0-1.837-.593-2.1722-1.485z"/></g><path d="m298.42 50.35c-.6 5.16-1.41 8.91-2.43 11.25-1.08 2.28-2.76 3.96-5.04 5.04-2.34 1.02-6.09 1.83-11.25 2.43v3.78c5.16.6 8.91 1.44 11.25 2.52 2.28 1.02 3.96 2.7 5.04 5.04 1.02 2.28 1.83 6 2.43 11.16h3.78c.6-5.16 1.44-8.88 2.52-11.16 1.02-2.34 2.7-4.02 5.04-5.04 2.28-1.08 6-1.92 11.16-2.52v-3.78c-5.16-.6-8.88-1.41-11.16-2.43-2.34-1.08-4.02-2.76-5.04-5.04-1.08-2.34-1.92-6.09-2.52-11.25zm27.36-8.55c-.24 2.04-.54 3.54-.9 4.5-.42.9-1.08 1.56-1.98 1.98-.9.36-2.4.66-4.5.9v2.34c2.04.24 3.54.57 4.5.99.9.36 1.56 1.02 1.98 1.98.36.9.66 2.37.9 4.41h2.34c.24-2.04.57-3.51.99-4.41.42-.96 1.08-1.62 1.98-1.98.9-.42 2.37-.75 4.41-.99v-2.34c-2.04-.24-3.51-.54-4.41-.9-.9-.42-1.56-1.08-1.98-1.98-.42-.96-.75-2.46-.99-4.5zm-8.01 44.1c-.24 2.04-.54 3.54-.9 4.5-.42.9-1.08 1.56-1.98 1.98-.9.36-2.4.66-4.5.9v2.34c2.04.24 3.54.57 4.5.99.9.36 1.56 1.02 1.98 1.98.36.9.66 2.37.9 4.41h2.34c.24-2.04.57-3.51.99-4.41.42-.96 1.08-1.62 1.98-1.98.9-.42 2.37-.75 4.41-.99v-2.34c-2.04-.24-3.51-.54-4.41-.9-.9-.42-1.56-1.08-1.98-1.98-.42-.96-.75-2.46-.99-4.5z" fill="#e43d47"/><path clip-rule="evenodd" d="m169.643 250.867c.541-.237 1.171.012 1.407.555 3.289 7.575 14 7.575 17.289 0 .236-.543.866-.792 1.407-.555.542.236.789.868.554 1.412-4.035 9.293-17.176 9.293-21.211 0-.236-.544.012-1.176.554-1.412z" fill="#111" fill-rule="evenodd"/><path clip-rule="evenodd" d="m184.28 244c.591 0 1.07.484 1.07 1.08v3.77c-1.413 0-.479 0-1.07 0-.59 0-.229 0-1.069 0v-3.77c0-.596.479-1.08 1.069-1.08z" fill="#111" fill-rule="evenodd"/><path clip-rule="evenodd" d="m174.421 244c.591 0 1.069.484 1.069 1.08v3.77c-1.069 0-.478 0-1.069 0s-.153 0-1.069 0v-3.77c0-.596.478-1.08 1.069-1.08z" fill="#111" fill-rule="evenodd"/></svg>