<svg width="450" height="504" viewBox="0 0 450 504" fill="none"
    xmlns="http://www.w3.org/2000/svg">
    <rect width="360" height="504" fill="#DAD9EC"/>
    <path d="M246.793 131.389C271.697 147.285 274.017 190.771 302.849 197.222C331.521 203.637 356.004 176.819 381.027 161.422C406.157 145.96 442.813 136.526 448.539 107.582C454.402 77.9433 411.806 59.3049 407.134 29.4558C401.634 -5.6792 438.995 -43.6484 420.146 -73.8051C402.125 -102.637 357.367 -112.04 324.8 -102.271C293.168 -92.7818 291.584 -45.4077 264.156 -27.012C238.526 -9.82172 198.906 -24.9495 177.042 -3.16951C151.905 21.8702 125.744 63.1011 142.072 94.6003C159.527 128.272 214.824 110.983 246.793 131.389Z" fill="#B7B4DE"/>
    <mask id="mask0" mask-type="alpha" maskUnits="userSpaceOnUse" x="60" y="439" width="96" height="25">
        <path fill-rule="evenodd" clip-rule="evenodd" d="M63.919 447.619L67.674 455.769L71.414 447.619H75.184L67.644 463.13L60.164 447.619H63.919ZM87.626 447.619H90.993V462.132H87.626V460.612C86.245 461.904 84.76 462.549 83.171 462.549C81.164 462.549 79.505 461.824 78.194 460.374C76.892 458.894 76.242 457.046 76.242 454.831C76.242 452.655 76.892 450.842 78.194 449.392C79.495 447.942 81.124 447.217 83.081 447.217C84.77 447.217 86.285 447.912 87.626 449.303V447.619ZM79.669 454.831C79.669 456.221 80.041 457.354 80.786 458.228C81.551 459.112 82.515 459.554 83.677 459.554C84.919 459.554 85.922 459.127 86.687 458.273C87.452 457.389 87.834 456.266 87.834 454.905C87.834 453.544 87.452 452.422 86.687 451.538C85.922 450.673 84.929 450.241 83.707 450.241C82.555 450.241 81.591 450.678 80.816 451.553C80.051 452.437 79.669 453.529 79.669 454.831ZM95.225 447.619H98.578V448.915C99.194 448.269 99.74 447.827 100.217 447.589C100.704 447.341 101.28 447.217 101.945 447.217C102.829 447.217 103.753 447.505 104.717 448.081L103.182 451.15C102.546 450.693 101.925 450.465 101.32 450.465C99.492 450.465 98.578 451.846 98.578 454.607V462.132H95.225V447.619ZM110.469 447.619V462.132H107.116V447.619H110.469ZM106.609 441.584C106.609 440.998 106.823 440.491 107.25 440.064C107.677 439.637 108.189 439.423 108.785 439.423C109.391 439.423 109.907 439.637 110.334 440.064C110.762 440.481 110.975 440.993 110.975 441.599C110.975 442.205 110.762 442.721 110.334 443.149C109.917 443.576 109.406 443.789 108.8 443.789C108.194 443.789 107.677 443.576 107.25 443.149C106.823 442.721 106.609 442.2 106.609 441.584ZM125.414 447.619H128.781V462.132H125.414V460.612C124.033 461.904 122.548 462.549 120.959 462.549C118.952 462.549 117.293 461.824 115.982 460.374C114.68 458.894 114.03 457.046 114.03 454.831C114.03 452.655 114.68 450.842 115.982 449.392C117.283 447.942 118.912 447.217 120.869 447.217C122.558 447.217 124.073 447.912 125.414 449.303V447.619ZM117.457 454.831C117.457 456.221 117.829 457.354 118.574 458.228C119.339 459.112 120.303 459.554 121.465 459.554C122.707 459.554 123.71 459.127 124.475 458.273C125.24 457.389 125.623 456.266 125.623 454.905C125.623 453.544 125.24 452.422 124.475 451.538C123.71 450.673 122.717 450.241 121.495 450.241C120.343 450.241 119.379 450.678 118.604 451.553C117.839 452.437 117.457 453.529 117.457 454.831ZM133.013 447.619H136.381V448.96C137.553 447.798 138.874 447.217 140.344 447.217C142.033 447.217 143.349 447.748 144.293 448.811C145.108 449.715 145.515 451.19 145.515 453.236V462.132H142.147V454.026C142.147 452.596 141.949 451.607 141.551 451.061C141.164 450.505 140.459 450.226 139.435 450.226C138.323 450.226 137.533 450.594 137.066 451.329C136.609 452.054 136.381 453.321 136.381 455.129V462.132H133.013V447.619ZM153.219 450.748V462.132H149.866V450.748H148.435V447.619H149.866V442.299H153.219V447.619H155.826V450.748H153.219Z" fill="white"/>
    </mask>
    <g mask="url(#mask0)">
        <path fill-rule="evenodd" clip-rule="evenodd" d="M649.657 820.775H-76.5834V300.298H649.657V820.775Z" fill="#03DAC6"/>
        <path fill-rule="evenodd" clip-rule="evenodd" d="M94.942 486.687C94.942 496.217 94.63 500.375 94.63 507.432C94.63 514.489 81.228 504.296 81.228 504.296L63.551 496.504L62.927 506.179C62.927 506.179 58.112 508.124 51.068 499.504C44.023 490.885 38.212 485.574 25.468 475.612C12.724 465.65 3.45099 479.293 3.45099 479.293L6.30299 472.229V467.255L8.71199 462.035L28.889 467.166L43.399 471.216C43.399 471.216 45.024 478.973 52.005 476.273C54.421 475.339 56.483 474.632 58.985 473.574C63.713 471.574 68.366 469.368 68.366 469.368L92.899 466.899L94.942 486.687Z" fill="#EDE8D7"/>
        <path fill-rule="evenodd" clip-rule="evenodd" d="M176.108 445.383C168.951 454.98 167.694 465.101 168.551 474.744L148.881 465.408L145.452 440.623L155.293 421.879C155.293 421.879 166.766 436.715 176.108 445.383Z" fill="#03DAC6"/>
        <path fill-rule="evenodd" clip-rule="evenodd" d="M211.211 435.798C211.211 435.798 167.767 397.565 156.308 388.139C144.849 378.713 139.319 376.907 139.319 376.907H163.245L190.445 375.102L217.87 386.839L272.381 431.983L290.778 456.135C290.778 456.135 289.267 470.638 278.808 467.181C267.657 463.496 258.048 456.813 258.048 456.813L254.236 438.416L213.017 422.051L211.211 435.798Z" fill="#FFC4BC"/>
        <path fill-rule="evenodd" clip-rule="evenodd" d="M179.717 503.073C181.721 495.26 169.41 498.988 168.541 490.592C167.673 482.196 175.433 478.195 175.433 478.195C175.433 478.195 163.756 471.44 158.641 463.14C153.526 454.841 151.499 448.375 151.499 448.375C151.499 448.375 153.14 454.841 141.366 456.964C135.8 457.968 130.943 460.275 129.785 463.72C128.494 467.562 127.976 475.714 134.235 481.413C146.105 492.222 150.92 500.681 150.92 500.681C150.92 500.681 165.107 500.102 166.072 516.122C166.606 524.989 164.686 532.082 164.452 537.254C164.264 541.426 167.972 547.458 172.152 549.053C181.513 552.623 188.461 549.031 188.461 549.031L195.839 540.236C195.839 540.236 183.97 538.85 179.1 530.116C174.04 521.04 177.574 511.427 179.717 503.073Z" fill="#E61A6B"/>
        <path fill-rule="evenodd" clip-rule="evenodd" d="M81.228 394.268V438.084C81.228 438.084 81.228 444.008 83.646 454.501C83.646 454.501 97.832 465.572 111.367 460.789C114.605 459.645 112.962 451.446 112.097 448.802C110.61 444.257 107.59 439.574 103.141 438.084C98.704 436.599 97.769 437.945 97.714 435.992C97.652 433.792 97.334 434.289 102.657 434.963C112.711 436.236 105.046 425.355 97.899 417.087C96.035 414.931 97.971 408.39 94.708 405.112C89.029 399.408 81.228 394.268 81.228 394.268" fill="#E61A6B"/>
        <path fill-rule="evenodd" clip-rule="evenodd" d="M145.882 442.851C145.882 442.851 137.412 448.47 131.103 441.158C126.478 435.798 132.457 431.005 129.975 427.734C127.494 424.462 119.597 424.237 119.597 420.288C119.597 416.34 117.679 415.324 117.679 415.324C117.679 415.324 126.704 410.023 137.083 416.904C147.461 423.785 145.882 442.851 145.882 442.851" fill="#E61A6B"/>
        <path fill-rule="evenodd" clip-rule="evenodd" d="M132.435 414.537C127 410.216 112.223 409.188 112.223 386.938C112.223 386.938 108.095 386.886 105.152 386.16V394.16C105.152 394.16 102.53 397.098 104.123 399.95C101.776 403.408 97.236 397.16 95.137 392.017C93.037 386.873 92.554 384.636 92.554 384.636C92.554 384.636 82.526 382.149 81.228 394.268C81.228 394.268 84.203 399.739 96.762 416.959C104.218 427.182 102.913 431.553 100.062 432.74C98.111 433.552 94.661 433.465 93.999 435.024C92.393 438.806 101.194 438.472 107.765 444.04C112.773 448.284 111.866 456.539 105.63 459.084C105.63 459.084 112.275 461.822 121.566 456.159C127.371 452.621 127.483 451.356 125.518 448.375C122.818 444.279 120.705 445.702 117.679 441.624C114.677 437.577 115.006 434.923 114.202 433.4C113.598 432.256 112.64 431.395 112.771 430.378C112.979 428.755 115.551 428.794 116.073 426.742C116.595 424.69 116.639 421.408 118.684 418.648C120.915 415.637 124.664 413.286 132.435 414.537Z" fill="#333333"/>
        <path fill-rule="evenodd" clip-rule="evenodd" d="M145.881 442.85C145.881 442.85 157.392 433.612 155.292 421.879C153.192 410.146 150.287 398.395 154.02 392.016C154.02 392.016 147.997 383 136.756 382.964C130.601 382.945 122.728 385.832 119.048 386.616C119.048 392.777 119.714 396.046 122.979 400.004C126.504 404.277 130.787 406.544 134.195 409.607C139.772 414.617 141.92 418.886 143.862 426.362C145.667 433.309 143.575 439.853 139.532 447.402C139.541 448.811 144.377 445.119 145.881 442.85" fill="#333333"/>
        <path fill-rule="evenodd" clip-rule="evenodd" d="M145.882 442.851C145.882 442.851 150.743 443.372 151.499 448.375C152.256 453.378 149.021 456.748 139.047 458.5C129.073 460.252 126.054 466.986 135.921 476.693C145.786 486.4 150.921 494.601 150.921 500.681C145.053 500.508 137.626 501.423 132.844 499.121C126.814 496.219 126.336 487.695 121.61 482.123C116.885 476.552 113.641 475.377 108.797 474.744C100.301 473.634 94.942 480.248 94.942 486.687C94.942 486.687 85.808 463.713 58.986 473.574C58.986 473.574 46.855 468.069 46.855 451.491V433.948L64.404 433.168C64.404 433.168 64.921 442.018 66.616 450.102C67.88 456.132 70.407 459.552 74.17 461.212C79.837 463.712 84.97 460.197 83.646 454.501C92.134 457.342 108.947 462.664 122.764 455.336C126.351 453.434 125.519 448.375 125.519 448.375C125.519 448.375 138.699 451.463 145.882 442.851" fill="#423D89"/>
    </g>
</svg>
