<svg width="360" height="504" viewBox="0 0 360 504" fill="none"
    xmlns="http://www.w3.org/2000/svg">
    <g clip-path="url(#clip0)">
        <path d="M360 0H0V504H360V0Z" fill="#DAD9EC"/>
        <path d="M-113.207 131.389C-88.303 147.285 -85.983 190.771 -57.151 197.222C-28.479 203.637 -3.99599 176.819 21.027 161.422C46.157 145.96 82.813 136.526 88.539 107.582C94.402 77.9433 51.806 59.3049 47.134 29.4558C41.634 -5.67919 78.995 -43.6484 60.146 -73.8051C42.125 -102.637 -2.63298 -112.04 -35.2 -102.271C-66.832 -92.7818 -68.416 -45.4077 -95.844 -27.012C-121.474 -9.8217 -161.094 -24.9495 -182.958 -3.16949C-208.095 21.8702 -234.256 63.1011 -217.928 94.6003C-200.473 128.272 -145.176 110.983 -113.207 131.389Z" fill="#B7B4DE"/>
        <path d="M644.237 597.96C673.551 545.226 572.209 498.666 566.413 438.611C562.262 395.588 624.841 364.975 617.642 322.356C610.51 280.134 572.742 241.585 531.308 230.775C490.092 220.021 454.585 268.341 411.99 268.701C365.584 269.092 315.57 202.65 280.37 232.893C243.694 264.404 303.946 328.954 288.521 374.782C274.319 416.976 196.337 426.918 200.134 471.277C203.743 513.443 275.704 509.004 302.793 541.518C333.694 578.607 318.543 655.721 364.933 669.078C410.276 682.133 435.003 604.394 480.729 592.751C534.665 579.018 617.195 646.607 644.237 597.96Z" fill="#B7B4DE"/>
    </g>
    <defs>
        <clipPath id="clip0">
            <rect width="360" height="504" fill="white"/>
        </clipPath>
    </defs>
</svg>
